<?xml version="1.0" encoding="UTF-8" standalone="no"?>
<!DOCTYPE svg PUBLIC "-//W3C//DTD SVG 1.1//EN" "http://www.w3.org/Graphics/SVG/1.1/DTD/svg11.dtd">
<svg width="100%" height="100%" viewBox="0 0 1296 1296" version="1.1" xmlns="http://www.w3.org/2000/svg" xmlns:xlink="http://www.w3.org/1999/xlink" xml:space="preserve" xmlns:serif="http://www.serif.com/" style="fill-rule:evenodd;clip-rule:evenodd;stroke-linejoin:round;stroke-miterlimit:2;">
    <g id="Logo">
        <g id="Outer-Ring" serif:id="Outer Ring" transform="matrix(1.258612,0,0,1.541121,-201.049715,-426.465149)">
            <ellipse cx="679.262" cy="700.68" rx="483.435" ry="394.682" style="fill:rgb(253,195,15);"/>
        </g>
        <g id="Name-and-Star-Ring" serif:id="Name and Star Ring" transform="matrix(1.077884,0,0,1.807829,-23.121151,-79.553462)">
            <ellipse cx="625.628" cy="404.019" rx="511.843" ry="305.541" style="fill:rgb(90,45,136);"/>
            <clipPath id="_clip1">
                <ellipse cx="625.628" cy="404.019" rx="511.843" ry="305.541"/>
            </clipPath>
            <g clip-path="url(#_clip1)">
                <g id="Stars" transform="matrix(0.927743,0,0,0.55315,21.450497,44.004979)">
                    <g id="Star" transform="matrix(1.19043,0,0,1.19043,44,44)">
                        <path d="M95.539,577.95C97.228,577.769 115.188,575.843 116.497,574.497C123.486,567.31 130.589,549.991 130.758,549.639C133.748,543.43 142.971,567.439 144.919,571.268C149.185,579.655 174.807,579.866 177.143,580.962C178.796,581.737 178.777,583.471 161.918,597.949C151.317,607.053 159.038,622.423 159.906,633.556C160.3,638.607 137.804,624.34 135.271,622.974C130.14,620.207 119.541,627.13 105.331,634.08C99.43,636.965 106.402,614.201 107.005,611.392C110.432,595.429 90.722,589.883 86.843,581.381C86.533,580.7 86.163,579.09 95.539,577.95Z" style="fill:rgb(253,195,15);"/>
                    </g>
                    <g id="Star1" serif:id="Star" transform="matrix(1.19043,0,0,1.19043,44,44)">
                        <path d="M857.529,577.948C859.064,577.77 873.426,576.103 876.26,573.24C880.67,568.785 886.039,555.5 889.897,548.834C890.53,547.74 892.354,547.603 899.041,561.711C908.239,581.119 912.259,577.973 933.453,579.89C943.412,580.79 921.22,596.835 917.799,599.849C912.756,604.292 915.405,613.017 918.352,632.51C919.268,638.571 904.299,628.633 893.271,622.963C886.283,619.371 870.061,631.73 863.553,633.689C857.941,635.379 861.646,630.79 865.78,607.554C867.214,599.493 855.808,593.938 848.956,586.077C840.121,575.94 854.246,578.209 857.529,577.948Z" style="fill:rgb(253,195,15);"/>
                    </g>
                    <g id="Star2" serif:id="Star" transform="matrix(1.19043,0,0,1.19043,44,44)">
                        <path d="M813.905,798.602C812.9,802.929 809.577,827.046 803.838,820.218C798.345,813.682 788.19,798.75 783.483,799.203C780.563,799.485 751.847,804.017 755.912,797.744C768.816,777.828 774.267,777.524 768.004,763.728C759.557,745.118 761.843,743.52 763.436,743.866C778.3,747.095 787.814,755.219 797.098,747.056C797.996,746.266 815.763,727.37 816.533,735.496C818.521,756.475 813.13,759.801 824.796,767.044C834.372,772.989 850.122,780.4 840.477,783.43C824.156,788.559 818.153,789.23 813.905,798.602Z" style="fill:rgb(253,195,15);"/>
                    </g>
                    <g id="Star3" serif:id="Star" transform="matrix(1.19043,0,0,1.19043,44,44)">
                        <path d="M205.033,754.469C205.983,735.426 206.054,735.111 206.423,733.468C207.516,728.61 222.814,744.689 226.715,748.225C233.17,754.075 253.958,744.76 261.541,744.304C265.191,744.085 262.325,746.384 255.821,760.643C247.73,778.381 254.29,778.71 265.158,794.721C271.488,804.046 255.129,799.849 244.499,799.687C226.349,799.41 222.73,820.748 216.511,822.529C213.005,823.533 214.471,820.913 211.705,808.459C206.972,787.143 201.283,790.84 182.665,783.136C165.018,775.834 202.111,778.603 205.033,754.469Z" style="fill:rgb(253,195,15);"/>
                    </g>
                    <g id="Star4" serif:id="Star" transform="matrix(1.19043,0,0,1.19043,44,44)">
                        <path d="M200.394,724.976C192.884,723.363 179.913,718.704 173.67,722.749C170.486,724.812 156.874,737.73 155.222,739.129C154.966,739.346 151.915,741.93 151.358,737.521C151.187,736.169 151.6,736.277 150.259,720.523C148.376,698.405 127.069,700.382 122.313,693.612C121.582,692.57 121.714,691.414 136.41,686.228C154.641,679.794 153.147,666.607 155.799,653.56C158.062,642.427 161.825,653.466 176.633,669.371C180.605,673.637 181.59,671.304 206.501,669.566C214.559,669.003 199.324,688.533 198.68,689.605C192.252,700.288 197.839,700.809 206.079,721.652C208.8,728.535 200.615,725.023 200.394,724.976Z" style="fill:rgb(253,195,15);"/>
                    </g>
                    <g id="Star5" serif:id="Star" transform="matrix(1.19043,0,0,1.19043,44,44)">
                        <path d="M865.997,660.405C867.256,666.204 867.216,678.512 877.671,683.155C894.586,690.667 902.828,689.932 896.151,695.087C882.752,705.433 871.954,700.799 870.243,720.474C868.638,738.914 868.008,739.764 866.623,739.137C853.66,733.265 855.298,716.613 828.609,722.953C816.788,725.762 814.864,728.666 814.151,724.575C813.158,718.875 827.836,700.459 824.061,693.753C812.376,672.993 807.911,669.687 813.501,669.695C827.503,669.714 838.9,675.088 846.088,667.106C851.683,660.893 860.446,650.134 861.443,649.406C865.255,646.62 863.804,650.775 865.997,660.405Z" style="fill:rgb(253,195,15);"/>
                    </g>
                </g>
                <g id="Lake-Braddock-Bruins-Text-Ring" serif:id="Lake Braddock Bruins Text Ring" transform="matrix(0.927743,0,0,0.55315,21.450497,44.004979)">
                    <g id="Bruins">
                        <g id="S" transform="matrix(1.19043,0,0,1.19043,44,44)">
                            <path d="M721.454,814.07C687.159,818.915 702.43,833.196 704.458,833.627C715.747,836.029 764.541,817.606 764.449,857.498C764.384,885.592 704.963,904.615 707.932,887.555C708.121,886.468 710.155,874.781 712.509,874.542C754.075,870.32 743.988,854.896 741.436,853.612C733.848,849.794 678.036,868.184 678.96,830.506C679.649,802.436 727.751,787.609 729.147,800.542C730.443,812.542 722.681,813.862 721.454,814.07Z" style="fill:rgb(253,195,15);"/>
                        </g>
                        <g id="N" transform="matrix(1.19043,0,0,1.19043,44,44)">
                            <path d="M640.998,838.412C640.748,828.029 645.272,830.669 655.442,829.102C660.773,828.281 661.87,841.333 681.292,900.565C684.126,909.207 690.16,914.199 675.396,919.176C659.726,924.459 660.702,917.1 638.345,896.666C618.399,878.434 607.425,863.681 611.75,872.467C620.29,889.812 621.221,889.308 632.062,924.637C632.526,926.148 635.538,935.963 616.526,936.846C613.45,936.989 608.665,921.05 608.224,919.582C587.987,852.184 586.638,850.185 590.611,848.831C597.069,846.629 606.323,841.159 613.12,847.885C656.002,890.32 664.486,902.535 659.855,892.395C647.944,866.322 648.581,866.179 640.998,838.412Z" style="fill:rgb(253,195,15);"/>
                        </g>
                        <g id="I" transform="matrix(1.19043,0,0,1.19043,44,44)">
                            <path d="M559.531,850.962C567.945,851.134 567.91,850.984 568.618,851.147C570.416,851.563 571.603,861.54 571.714,862.472C572.427,868.465 578.223,917.202 579.627,937.497C579.93,941.874 577.92,941.038 561.51,943.596C556.461,944.382 558.656,940.637 551.788,880.463C549.671,861.913 541.158,854.128 559.531,850.962Z" style="fill:rgb(253,195,15);"/>
                        </g>
                        <g id="U" transform="matrix(1.19043,0,0,1.19043,44,44)">
                            <path d="M509.034,889.471C510.53,862.136 511.042,860.036 511.648,857.547C513.102,851.58 532.446,852.703 532.16,859.482C529.467,923.371 520.777,944.896 493.497,945.084C441.189,945.446 451.997,898.151 456.262,857.472C457.53,845.377 462.382,848.865 474.468,849.709C483.009,850.305 470.077,902.6 474.634,916.458C475.727,919.781 503.071,951.504 509.034,889.471Z" style="fill:rgb(253,195,15);"/>
                        </g>
                        <g id="R">
                            <g transform="matrix(1.19043,0,0,1.19043,44,44)">
                                <path d="M394.081,899.579C393.905,898.935 392.203,892.699 391.239,891.727C377.13,877.501 375.212,911.249 370.308,916.309C368.909,917.752 354.729,913.196 353.414,912.774C348.286,911.127 351.787,908.752 372.736,839.58C375.858,829.272 373.995,823.906 384.5,826.501C431.166,838.026 434.323,849.159 436.097,852.699C449.343,879.135 418.769,891.077 415.435,892.379C411.156,894.051 421.932,927.065 421.856,930.506C421.824,931.977 420.999,934.231 403.597,928.242C397.21,926.044 396.055,910.209 394.081,899.579Z" style="fill:rgb(253,195,15);"/>
                            </g>
                            <g transform="matrix(1.19043,0,0,1.19043,44,44)">
                                <path d="M388.176,861.383C392.388,849.658 391.708,849.225 393.63,847.682C394.716,846.81 396.313,847.208 396.541,847.265C433.387,856.444 414.54,876.909 401.538,875.201C381.809,872.61 387.175,864.985 388.176,861.383Z" style="fill:rgb(90,45,136);fill-opacity:0.98;"/>
                            </g>
                        </g>
                        <g id="B">
                            <g transform="matrix(1.19043,0,0,1.19043,44,44)">
                                <path d="M356.108,828.542C354.136,855.723 330.333,846.68 334.405,853.549C334.826,854.26 347.22,867.949 336.064,882.136C330.242,889.54 318.946,903.287 263.505,870.493C258.669,867.633 262.312,865.735 292.879,806.703C296.119,800.447 301.239,787.699 305.562,789.316C350.165,805.996 354.804,823.592 356.108,828.542Z" style="fill:rgb(253,195,15);"/>
                            </g>
                            <g transform="matrix(1.19043,0,0,1.19043,44,44)">
                                <path d="M289.041,862.491C290.285,857.637 293.556,852.84 297.691,846.64C300.741,842.068 320.342,854.491 321.12,861.564C322.969,878.364 292.805,874.74 289.041,862.491Z" style="fill:rgb(90,45,136);"/>
                            </g>
                            <g transform="matrix(1.19043,0,0,1.19043,44,44)">
                                <path d="M314.386,834.763C303.922,828.96 306.441,825.782 312.941,815.774C317.451,808.83 333.787,821.266 334.02,827.514C334.537,841.384 315.976,835.286 314.386,834.763Z" style="fill:rgb(90,45,136);"/>
                            </g>
                        </g>
                    </g>
                    <g id="Lake-Braddock" serif:id="Lake Braddock">
                        <g id="Braddock">
                            <g id="K" transform="matrix(1.19043,0,0,1.19043,44,44)">
                                <path d="M835.019,431.531C835.775,427.274 843.264,426.92 857.44,424.173C899.012,416.118 898.684,415.047 917.481,412.322C929.291,410.609 925.843,416.875 928.541,428.491C929.918,434.419 898.735,436.491 894.867,438.907C893.41,439.818 894.461,441.052 913.285,449.95C932.453,459.011 935.795,458.387 938.879,479.482C939.972,486.959 914.745,469.424 899.372,463.911C894.377,462.121 859.953,500.724 851.591,504.694C850.223,505.344 849.521,504.615 846.31,486.508C845.015,479.206 883.94,455.632 875.252,450.942C860.581,443.022 859.749,445.807 843.506,449.529C837.281,450.955 836.941,439.834 835.019,431.531Z" style="fill:rgb(253,195,15);"/>
                            </g>
                            <g id="C" transform="matrix(1.19043,0,0,1.19043,44,44)">
                                <path d="M907.946,369.496C907.511,377.439 907.924,387.405 890.562,380.391C888.837,379.694 896.086,344.579 860.595,349.959C841.8,352.809 818.803,373.302 840.761,393.221C849.329,400.993 851.126,402.948 844.098,412.166C832.268,427.681 771.88,347.194 859.561,327.782C865.773,326.407 903.574,327.398 907.946,369.496Z" style="fill:rgb(253,195,15);"/>
                            </g>
                            <g id="O">
                                <g transform="matrix(1.19043,0,0,1.19043,44,44)">
                                    <path d="M755.938,290.451C755.734,244.084 803.52,222.017 832.177,244.901C894.077,294.332 776.443,377.106 755.938,290.451Z" style="fill:rgb(253,195,15);"/>
                                </g>
                                <g transform="matrix(1.19043,0,0,1.19043,44,44)">
                                    <path d="M829.092,272.53C823.414,325.074 756.643,311.554 780.966,273.837C789.531,260.554 822.543,242.78 829.092,272.53Z" style="fill:rgb(90,45,136);"/>
                                </g>
                            </g>
                            <g id="D" transform="matrix(1.19043,0,0,1.19043,44,44)">
                                <path d="M767.09,218.404C766.031,221.636 747.548,284.811 690.818,248.021C677.613,239.458 669.487,236.23 672.885,230.744C687.291,207.486 688.583,208.491 718.59,160.561C722.338,154.576 756.129,179.658 763.012,191.769C768.991,202.289 767.343,216.264 767.09,218.404Z" style="fill:rgb(253,195,15);"/>
                                <path d="M746.881,207.514C737.117,255.708 693.941,237.917 699.928,228.773C728.291,185.456 729.672,183.384 733.235,185.871C748.32,196.4 746.616,205.856 746.881,207.514Z" style="fill:rgb(90,45,136);"/>
                            </g>
                            <g id="D1" serif:id="D">
                                <g transform="matrix(1.19043,0,0,1.19043,44,44)">
                                    <path d="M639.55,215.964C635.507,215.991 621.389,216.083 590.673,203.087C585.882,201.06 591.525,192.494 614.768,132.614C615.257,131.354 618.596,114.942 626.355,117.863C642.752,124.036 700.38,140.187 670.055,195.26C659.555,214.328 641.275,215.578 639.55,215.964Z" style="fill:rgb(253,195,15);"/>
                                </g>
                                <g transform="matrix(1.19043,0,0,1.19043,44,44)">
                                    <path d="M655.895,157.408C660.153,208.703 612.505,199.514 615.224,191.418C617.156,185.664 633.121,143.641 634.937,141.962C637.273,139.801 645.407,144.513 646.215,144.981C653.293,149.081 652.573,149.885 655.895,157.408Z" style="fill:rgb(90,45,136);"/>
                                </g>
                            </g>
                            <g id="A">
                                <g transform="matrix(1.19043,0,0,1.19043,44,44)">
                                    <path d="M582.947,186.447C583.14,188.532 585.933,199.415 580.491,198.57C568.016,196.633 561.862,197.537 561.301,187.511C560.989,181.927 562.886,173.285 556.427,171.807C538.841,167.781 533.353,164.602 528.689,173.598C528.648,173.676 523.605,187.039 518.498,186.534C503.725,185.072 503.086,184.669 503.441,183.493C504.933,178.555 539.855,97.43 549.475,98.963C568.067,101.925 572.904,104.063 573.714,110.473C578.517,148.438 577.989,148.33 582.947,186.447Z" style="fill:rgb(253,195,15);"/>
                                </g>
                                <g transform="matrix(1.19043,0,0,1.19043,44,44)">
                                    <path d="M557.043,131.524C558.037,147.345 564.19,156.845 548.579,154.061C545.322,153.48 538.558,153.626 540.899,147.653C544.967,137.277 554.433,118.671 554.556,118.574C558.212,115.657 556.26,120.052 557.043,131.524Z" style="fill:rgb(90,45,136);"/>
                                </g>
                            </g>
                            <g id="R1" serif:id="R">
                                <g transform="matrix(1.19043,0,0,1.19043,44,44)">
                                    <path d="M464.546,100.052C465.012,100.153 482.312,100.519 488.802,117.375C498.232,141.868 473.513,146.557 481.907,157.181C483.528,159.233 503.837,184.939 498.464,185.364C483.344,186.56 481.153,189.16 471.905,177.174C468.565,172.845 458.277,153.826 447.72,161.826C443.457,165.057 455.525,192.607 448.43,194.194C427.52,198.871 429.262,191.756 429.224,191.549C417.602,126.714 413.471,107.598 417.565,106.729C456.27,98.518 462.766,100.02 464.546,100.052Z" style="fill:rgb(253,195,15);"/>
                                </g>
                                <g transform="matrix(1.19043,0,0,1.19043,44,44)">
                                    <path d="M440.97,125.421C440.66,116.58 443.753,117.469 452.52,116.959C454.412,116.849 464.808,116.164 468.572,122.457C478.736,139.448 450.768,143.722 448.431,144.079C442.529,144.981 442.082,131.694 440.97,125.421Z" style="fill:rgb(90,45,136);"/>
                                </g>
                            </g>
                            <g id="B1" serif:id="B">
                                <g transform="matrix(1.19043,0,0,1.19043,44,44)">
                                    <path d="M330.878,173.344C324.394,156.565 317.485,141.352 320.741,139.948C376.355,115.971 381.694,126.626 384.342,128.704C399.039,140.245 384.221,158.959 389.587,160.17C421.39,167.348 410.212,192.804 407.239,197.33C397.117,212.738 355.249,224.65 354.559,224.801C351.341,225.503 350.257,222.973 330.878,173.344Z" style="fill:rgb(253,195,15);"/>
                                </g>
                                <g transform="matrix(1.19043,0,0,1.19043,44,44)">
                                    <path d="M362.793,194.379C358.651,183.262 357.862,183.216 358.816,181.661C359.572,180.43 365.981,178.11 366.635,177.873C391.695,168.801 397.398,187.392 383.185,196.046C372.116,202.786 368.141,206.296 362.793,194.379Z" style="fill:rgb(90,45,136);"/>
                                </g>
                                <g transform="matrix(1.19043,0,0,1.19043,44,44)">
                                    <path d="M345.911,150.461C347.95,136.033 393.167,144.478 362.229,163.039C350.51,170.069 349.685,163.495 345.911,150.461Z" style="fill:rgb(90,45,136);"/>
                                </g>
                            </g>
                        </g>
                        <g id="Lake">
                            <g id="E" transform="matrix(1.19043,0,0,1.19043,44,44)">
                                <path d="M272.82,186.407C272.792,193.394 244.035,207.05 248.398,213.562C249.073,214.57 256.58,225.775 260.212,223.071C276.701,210.793 282.332,198.025 291.044,216.708C293.914,222.861 266.724,235.568 271.378,241.585C272.223,242.679 281.749,254.997 284.282,253.076C309.133,234.23 309.944,228.828 315.455,234.542C328.162,247.719 316.793,248.875 302.715,260.759C292.648,269.256 278.659,283.366 274.549,278.459C223.467,217.472 222.859,217.952 220.366,211.53C219.648,209.681 260.688,174.741 263.426,175.76C268.638,177.699 272.329,185.383 272.82,186.407Z" style="fill:rgb(253,195,15);"/>
                            </g>
                            <g id="K1" serif:id="K" transform="matrix(1.19043,0,0,1.19043,44,44)">
                                <path d="M266.522,283.04C270.647,283.459 272.647,283.91 270.223,287.303C262.59,297.983 260.999,302.758 249.478,301.837C237.145,300.852 213.966,296.716 215.608,302.473C223.284,329.385 245.49,322.953 237.011,334.104C236.245,335.111 227.797,346.22 225.668,345.139C221.701,343.127 198.289,326.169 171.423,306.608C162.68,300.243 150.673,295.557 154.916,289.799C155.727,288.699 164.724,276.491 167.264,277.987C171.218,280.317 197.594,302.175 194.53,293.491C184.334,264.6 179.323,255.8 184.03,249.154C192.484,237.218 193.706,237.616 194.447,238.546C200.615,246.283 202.304,278.975 214.465,279.913C229.565,281.077 262.356,282.819 266.522,283.04Z" style="fill:rgb(253,195,15);"/>
                            </g>
                            <g id="A1" serif:id="A">
                                <g transform="matrix(1.19043,0,0,1.19043,44,44)">
                                    <path d="M192.88,426.226C156.767,398.904 157.594,398.185 121.839,370.074C116.131,365.586 128.149,344.863 130.485,344.449C131.816,344.213 213.332,349.698 220.535,350.183C226.948,350.615 218.844,371.609 210.479,370.711C206.486,370.282 202.515,369.643 198.516,369.273C191.722,368.644 186.134,387.6 185.404,389.463C182.225,397.572 194.403,402.36 195.248,402.904C204.695,408.979 199.737,413.531 195.232,426.312C195.05,426.263 195.092,426.436 192.88,426.226Z" style="fill:rgb(253,195,15);"/>
                                </g>
                                <g transform="matrix(1.19043,0,0,1.19043,44,44)">
                                    <path d="M147.445,362.933C172.032,365.547 177.906,364.438 175.044,372.348C171.922,380.979 171.139,385.371 163.768,380.122C151.909,371.679 152.078,371.767 139.871,364.049C135.643,361.377 146.837,362.853 147.445,362.933Z" style="fill:rgb(90,45,136);"/>
                                </g>
                            </g>
                            <g id="L" transform="matrix(1.19043,0,0,1.19043,44,44)">
                                <path d="M192.458,428.681L194.425,429.513C193.669,439.988 186.048,481.804 184.337,483.279C180.712,486.407 96.159,469.164 95.76,469.011C93.555,468.165 97.587,453.007 97.947,451.655C99.137,447.181 125.276,454.465 166.439,460.855C173.602,461.967 174.637,443.901 177.231,430.448C178.628,423.203 192.088,428.604 192.458,428.681Z" style="fill:rgb(253,195,15);"/>
                            </g>
                        </g>
                    </g>
                </g>
            </g>
        </g>
        <g id="Inner-Circle" serif:id="Inner Circle" transform="matrix(2.174141,0,0,2.860469,257.698275,-791.432436)">
            <ellipse cx="181.263" cy="504.399" rx="164.165" ry="124.679" style="fill:rgb(253,195,15);"/>
            <clipPath id="_clip2">
                <ellipse cx="181.263" cy="504.399" rx="164.165" ry="124.679"/>
            </clipPath>
            <g clip-path="url(#_clip2)">
                <g id="Bear" transform="matrix(0.54754,0,0,0.416166,-98.290888,292.061336)">
                    <path d="M767.029,536.53C767.077,539.117 767.586,566.48 763.628,568.696C760.931,570.206 742.618,567.66 743.136,575.525C743.668,583.606 746.819,631.503 721.313,674.376C712.53,689.138 686.202,660.381 665.722,714.585C660.844,727.494 665.447,734.603 651.489,733.653C581.984,728.92 548.344,827.596 446.753,762.124C426.084,748.804 393.489,726.351 363.425,733.127C356.105,734.777 354.683,683.758 310.502,679.483C298.354,678.308 295.792,677.876 283.33,643.566C271.671,611.468 275.282,610.819 273.916,576.503C273.359,562.507 257.082,578.447 255.635,568.476C242.819,480.152 285.259,443.327 279.294,428.583C278.704,427.124 255.041,393.081 270.911,355.675C287.733,316.026 334.098,303.101 369.295,317.956C391.848,327.474 393.125,328.197 421.496,317.488C480.345,295.273 485.743,331.46 525.504,318.511C582.539,299.937 617.412,335.066 643.403,322.303C651.016,318.564 690.292,295.343 740.149,339.894C777.909,373.637 737.336,423.885 737.3,428.49C737.161,446.475 756.915,443.933 767.029,536.53Z" style="fill:rgb(90,45,136);"/>
                    <path d="M512.507,530.952C490.751,532.131 484.172,530.789 449.382,543.166C436.219,547.849 427.608,514.444 427.528,496.499C427.525,495.995 427.472,484.197 425.541,490.526C402.128,567.246 454.264,577.394 457.152,592.576C463.972,628.422 447.091,682.604 472.581,708.42C473.778,709.633 511.278,744.322 500.556,744.925C478.072,746.189 477.282,746.745 468.191,738.852C421.232,698.082 388.861,703.487 381.51,704.715C371.86,706.326 384.887,664.558 334.542,655.259C326.89,653.845 313.643,657.907 308.231,626.554C297.528,564.546 309.693,526.675 303.667,530.825C298.022,534.713 281.474,552.083 281.463,544.501C281.289,425.819 367.816,370.243 358.446,370.761C329.368,372.368 321.658,399.387 322.66,384.499C322.75,383.164 327.412,370.258 319.811,375.949C296.839,393.151 300.915,411.738 297.407,401.565C295.503,396.044 293.828,368.223 298.977,358.742C318.382,323.017 365.744,337.438 366.357,337.788C417.027,366.68 429.469,316.995 482.401,334.8C506.064,342.76 505.228,352.015 518.711,345.944C591.959,312.958 614.213,359.949 641.396,347.278C656.983,340.013 683.074,322.918 712.152,344.946C718.024,349.394 728.42,365.147 721.517,364.296C716.724,363.705 671.738,358.157 661.46,370.467C655.941,377.077 700.259,380.767 666.425,413.424C662.525,417.19 659.647,417.653 663.467,421.532C671.156,429.339 638.48,441.333 641.912,447.274C649.114,459.741 642.8,464.553 618.535,463.044C595.46,461.61 599.91,454.3 599.684,452.474C595.062,415.014 579.12,432.952 568.521,434.674C556.064,436.697 553.824,412.184 553.996,424.683C554.425,455.711 609.676,445.677 585.02,529.341C580.223,545.617 575.818,544.028 574.487,543.548C540.698,531.361 540.281,533.076 512.507,530.952Z" style="fill:rgb(253,195,15);"/>
                    <path d="M546.066,601.55C544.681,591.707 543.404,563.954 534.939,581.708C529.979,592.109 531.367,574.987 519.329,570.987C502.193,565.294 493.407,584.33 492.153,586.193C491.689,586.882 490.21,587.198 486.433,577.529C480.88,563.317 475.761,613.455 473.665,604.409C469.491,586.388 468.478,586.792 459.854,574.292C447.65,556.602 509.956,546.067 551.606,560.194C555.1,561.378 579.003,569.486 551.228,606.306C546.043,613.18 546.335,603.358 546.066,601.55Z" style="fill:rgb(253,195,15);"/>
                    <path d="M499.497,508.874C488.238,507.926 486.06,510.028 479.062,497.748C466.639,475.948 463.549,470.824 477.673,460.747C520.164,430.43 560.358,462.653 556.882,471.615C540.474,513.922 531.453,508.782 499.497,508.874Z" style="fill:rgb(90,45,136);"/>
                    <path d="M467.065,429.448C464.487,443.303 463.293,443.449 450.752,449.99C434.557,458.437 438.551,476.663 427.727,466.251C412.634,451.734 426.787,426.309 448.751,437.045C463.751,444.377 464.054,403.107 467.273,420.572C467.402,421.27 467.257,421.229 467.065,429.448Z" style="fill:rgb(90,45,136);"/>
                    <path d="M473.065,683.497C473.796,674.953 473.585,675.09 474.838,666.545C479.893,632.058 481.289,677.696 483.326,684.554C485.526,691.962 491.113,678.249 491.439,677.45C494.022,671.111 493.34,690.146 505.437,692.776C522.996,696.595 530.414,670.771 533.023,679.65C541.05,706.967 541.736,654.986 546.526,656.442C553.452,658.547 554.672,679.374 554.795,681.48C556.396,708.809 508.105,713.158 486.693,704.066C471.996,697.825 473.836,690.641 473.065,683.497Z" style="fill:rgb(253,195,15);"/>
                </g>
            </g>
        </g>
    </g>
</svg>
