<?xml version="1.0" encoding="UTF-8" standalone="no"?>
<!DOCTYPE svg PUBLIC "-//W3C//DTD SVG 1.1//EN" "http://www.w3.org/Graphics/SVG/1.1/DTD/svg11.dtd">
<svg width="100%" height="100%" viewBox="0 0 2000 2000" version="1.1" xmlns="http://www.w3.org/2000/svg" xmlns:xlink="http://www.w3.org/1999/xlink" xml:space="preserve" xmlns:serif="http://www.serif.com/" style="fill-rule:evenodd;clip-rule:evenodd;stroke-linejoin:round;stroke-miterlimit:2;">
    <g transform="matrix(1.957582,0,0,1.957582,10.838562,-2.281803)">
        <path d="M515.501,1.034C540.285,3.453 540.531,3.568 542.505,4.489C543.874,5.127 546.699,4.184 552.358,5.973C553.988,6.489 556.292,5.375 567.434,8.763C570.498,9.695 570.559,9.137 573.594,10.188C575.592,10.88 575.887,9.634 579.523,11.458C580.11,11.752 580.419,10.66 587.439,13.629C592.259,15.667 593.516,13.979 599.566,17.386C600.137,17.708 600.3,17.071 607.434,19.647C622.034,24.92 640.46,33.122 646.514,35.469C650.761,37.116 649.908,38.632 654.398,39.894C658.709,41.105 697.705,64.668 710.24,75.775C720.346,84.73 720.794,84.098 730.705,93.287C781.168,140.076 791.872,169.385 800.203,177.81C800.942,178.558 809.201,196.287 813.897,204.239C817.085,209.636 820.113,220.879 825.091,227.795C830.301,235.033 830.302,247.075 837.057,263.712C837.946,265.9 841.439,280.01 841.792,281.434C846.817,301.729 846.867,302.6 846.976,304.487C847.734,317.626 849.076,317.425 850.203,330.533C850.593,335.066 850.936,334.985 850.967,339.498C851.019,347.032 851.954,346.921 851.966,354.5C851.999,376.316 854.365,376.331 852.02,393.474C851.824,394.906 852.407,394.931 850.236,411.462C847.034,435.849 847.617,435.907 844.681,448.55C843.276,454.599 842.96,457.739 842.879,458.548C842.735,459.971 841.192,461.528 841.061,463.46C840.312,474.543 831.635,488.376 835.206,492.728C837.637,495.691 831.996,493.998 830.265,499.434C829.077,503.164 820.746,524.539 820.347,525.425C811.72,544.603 810.655,544.052 809.924,545.725C806.463,553.643 806.705,553.686 801.81,560.704C801.126,561.685 801.018,563.943 800.517,564.513C795.849,569.816 786.53,586.096 785.867,589.575C784.117,598.756 779.187,595.417 767.892,609.774C753.433,628.152 738.219,639.161 739.226,642.568C740.261,646.071 740.442,645.941 741.434,649.522C743.556,657.191 740.885,657.234 741.163,666.512C741.34,672.403 739.989,673.122 742.471,674.538C746.714,676.96 745.024,671.496 774.191,648.146C777.299,645.658 783.927,639.529 784.756,638.761C787.41,636.307 787.872,637.019 790.577,634.597C796.458,629.331 792.056,636.576 791.943,636.745C788.933,641.249 789.038,641.229 787.572,644.535C787.242,645.281 784.019,649.18 782.386,653.444C782.005,654.439 772.536,675.372 769.513,681.507C769.053,682.44 769.107,682.45 764.038,693.3C762.239,697.15 762.421,697.533 765.215,700.759C766.322,702.037 768.885,713.025 771.409,710.392C774.63,707.033 788.186,685.775 795.658,662.563C798.44,653.919 799.653,654.349 801.226,645.441C801.504,643.87 802.944,644.39 807.674,626.568C809.573,619.414 822.266,582.028 833.793,565.697C845.228,549.495 870.119,507.948 860.159,536.354C855.066,550.878 856.15,553.231 854.59,557.538C853.462,560.654 847.581,610.15 846.296,613.402C846.128,613.827 841.202,641.314 831.359,658.411C818.761,680.294 800.706,697.595 797.585,700.586C796.393,701.729 797.424,704.063 800.623,701.685C809.784,694.877 809.602,694.756 817.727,686.747C817.987,686.491 831.608,675.98 833.578,674.622C858.236,657.631 897.556,640.384 908.675,632.779C909.539,632.189 909.604,632.326 919.829,625.956C929.38,620.006 929.803,620.698 938.336,613.312C947,605.814 961.193,593.036 971.127,575.294C971.385,574.832 974.241,565.848 976.279,569.623C977.078,571.102 966.035,605.237 958.759,614.704C958.56,614.963 953.378,626.92 945.911,634.882C945.05,635.8 945.653,636.244 936.351,647.377C934.143,650.02 923.755,662.452 905.176,677.077C904.536,677.581 904.573,677.44 896.796,682.866C891.715,686.411 892.33,687.319 886.541,689.592C885.303,690.078 885.923,690.936 872.453,698.423C866.47,701.749 849.431,708.488 847.399,709.291C846.419,709.679 800.66,719.149 800.382,719.263C795.343,721.333 794.827,718.857 789.378,721.22C787.018,722.244 774.585,722.638 774.994,726.466C775.331,729.615 775.934,729.443 776.168,732.53C776.71,739.705 777.783,739.841 778.396,739.918C779.153,740.015 792.494,739.739 793.451,739.385C800.053,736.944 800.592,739.714 805.529,737.558C805.827,737.428 851.687,735.114 881.229,713.177C894.169,703.568 899.208,695.116 898.084,700.475C897.589,702.839 888.285,716.896 884.433,721.443C858.316,752.274 830.078,764.947 816.674,770.861C812.365,772.762 793.247,779.749 776.487,780.282C768.761,780.527 768.217,782.022 767.975,782.687C766.278,787.344 765.619,786.966 763.792,791.622C761.772,796.772 750.831,802.587 747.428,801.82C746.824,801.684 740.034,800.152 739.722,802.53C739.417,804.855 741.189,804.934 741.425,804.945C759.266,805.745 762.626,804.696 764.38,804.148C766.738,803.412 767.304,804.83 771.707,802.951C772.363,802.671 772.452,803.078 780.442,801.155C798.326,796.851 811.287,788.499 813.72,786.931C818.949,783.562 815.05,788.72 814.916,788.841C806.949,796.083 802.151,802.627 792.724,808.832C791.388,809.711 786.657,813.655 786.139,814.087C781.423,818.019 763.356,826.171 761.312,827.093C760.028,827.673 759.927,827.333 744.688,832.925C741.389,834.135 732.832,833.849 732.729,837.512C732.627,841.098 733.117,841.197 728.738,854.595C727.181,859.363 721.211,862.843 720.375,863.33C716.638,865.508 713.403,887.775 679.426,894.123C677.624,894.46 670.106,895.865 656.528,895.013C656.13,894.988 636.785,891.049 634.415,889.657C624.766,883.989 623.831,885.76 614.759,879.162C610.942,876.385 610.346,877.414 606.82,874.155C605.906,873.311 606.014,873.221 596.211,862.781C578.503,843.923 586.716,837.62 576.554,827.447C571.757,822.645 571.085,819.875 566.754,822.865C542.199,839.815 522.911,839.178 503.505,839.068C502.782,839.064 502.858,838.454 494.531,838.01C493.397,837.95 474.281,832.993 464.576,829.228C457.181,826.359 455.23,824.448 451.473,831.483C449.935,834.362 447.32,834.59 447.997,847.46C448.028,848.033 448.675,847.927 449.11,854.542C449.286,857.219 449.089,857.206 450.22,859.629C452.075,863.6 448.126,868.815 454.321,872.785C468.326,881.759 472.228,900.636 472.808,903.44C473.731,907.904 475.909,906.639 478.24,911.615C482.904,921.57 491.869,935.32 476.001,975.347C470.656,988.828 462.143,996.991 460.534,998.535C460.126,998.926 460.239,999.013 455.558,1003.562C453.588,1005.476 438.683,1017.303 438.448,1017.396C418.603,1025.271 396.081,1023.128 391.255,1020.999C388.64,1019.846 385.418,1021.272 382.231,1018.827C380.779,1017.713 363.155,1015.056 355.268,1007.748C353.308,1005.932 339.265,1004.756 333.673,990.411C333.422,989.768 331.833,990.953 328.547,983.474C328.332,982.986 328.287,983.055 325.054,977.8C323.357,975.041 322.866,975.433 321.745,972.4C319.861,967.301 319.016,967.739 317.251,962.584C316.04,959.046 317.086,958.799 315.398,955.562C312.597,950.193 314.839,949.845 314.895,939.5C314.962,927.061 321.38,900.107 312.621,890.397C307.463,884.679 310.194,883.318 308.213,880.736C304.603,876.033 310,868.81 303.953,862.075C295.143,852.263 295.975,851.648 286.909,842.148C286.136,841.337 286.133,838.616 283.518,838.703C273.31,839.041 232.423,827.205 206.189,800.796C204.253,798.847 193.997,790.019 199.524,791.401C200.468,791.636 200.05,792.403 210.339,796.955C237.956,809.172 239.243,804.66 247.553,807.364C250.709,808.391 274.711,808.232 275.41,807.421C276.399,806.273 274.509,806.048 274.508,788.5C274.508,784.026 274.956,781.744 270.588,782.981C265.164,784.517 227.99,786.601 211.493,779.513C210.586,779.124 210.402,779.776 199.612,776.179C193.954,774.294 193.357,775.594 174.305,764.899C166.308,760.409 166.275,760.512 165.353,759.692C162.94,757.546 159.126,756.268 148.612,747.37C125.796,728.06 119.549,714.586 112.667,706.383C112.512,706.198 111.522,702.103 115.534,705.454C118.129,707.621 134.186,729.424 182.508,738.461C185.526,739.026 185.376,739.555 188.481,739.729C190.591,739.847 190.305,740.841 192.465,740.904C203.914,741.236 221.507,742.567 224.482,743.55C227.198,744.448 236.537,742.818 241.443,744.623C244.577,745.776 249.196,743.781 256.417,745.763C262.772,747.507 263.039,744.773 269.425,746.704C271.174,747.233 276.78,747.649 276.923,744.562C277.378,734.744 277.207,734.444 274.381,731.623C265.528,722.783 262.657,720.812 257.058,711.83C256.576,711.056 256.338,711.236 250.69,702.379C248.779,699.381 242.67,686.174 242.01,684.747C239.566,679.464 238.828,679.907 236.678,674.419C235.946,672.551 222.878,646.478 219.714,642.349C219.472,642.035 215.729,637.151 218.494,637.546C219.606,637.705 249.105,661.466 263.329,675.678C271.602,683.944 271.923,683.515 280.188,691.794C286.246,697.862 288.513,701.855 289.915,696.602C291.12,692.091 296.093,687.029 295.429,680.505C294.168,668.12 298.394,665.41 295.197,662.903C288.953,658.005 289.382,657.626 282.828,653.002C281.46,652.037 261.813,634.505 244.996,616.029C226.051,595.216 222.394,586.335 214.523,578.477C212.367,576.324 209.93,568.719 206.892,565.151C203.32,560.956 202.369,555.762 195.808,548.213C189.599,541.068 190.981,540.289 179.132,511.657C165.678,479.144 166.256,478.547 164.016,468.63C163.963,468.395 156.501,447.767 154.006,423.54C153.685,420.421 152.039,420.154 151.55,406.498C151.429,403.097 150.204,403.255 150.028,393.504C149.932,388.222 148.977,335.398 150.26,327.469C152.206,315.436 151.08,310.414 153.589,303.54C153.757,303.078 154.49,293.722 157.84,280.58C158.363,278.528 157.063,278.216 159.199,274.336C160.694,271.619 159.275,271.22 162.262,263.41C163.364,260.529 162.024,260.256 163.3,257.414C165.682,252.112 166.278,252.317 166.971,246.552C167.266,244.1 167.31,244.088 177.711,217.606C184.052,201.461 184.689,201.826 185.547,200.538C186.494,199.116 187.228,194.69 189.49,191.493C192.911,186.658 191.601,185.94 195.27,181.326C197.822,178.117 196.802,177.539 199.306,174.361C201.165,172.001 200.354,171.551 202.214,169.255C203.787,167.313 221.057,133.538 259.925,96.945C272.082,85.5 271.967,85.514 284.775,74.854C291.932,68.897 320.617,48.532 326.399,46.251C329.709,44.944 342.883,37.179 345.736,35.985C349.344,34.476 360.628,28.571 377.409,22.278C381.23,20.845 403.548,12.476 426.422,8.156C466.966,0.498 467.068,1.036 515.501,1.034ZM596.966,785.5C597.036,780.857 597.031,780.887 597.042,780.486C597.347,769.822 613.787,766.681 622.051,752.239C632.253,734.409 628.861,729.581 648.557,723.645C661.336,719.795 658.873,714.754 667.921,705.975C668.854,705.07 678.162,704.033 678.032,697.496C677.994,695.58 675.249,671.824 654.149,699.249C645.433,710.578 643.123,707.33 634.561,710.641C620.857,715.941 614.27,736.2 613.638,737.573C610.576,744.215 603.305,750.085 603.24,750.134C578.86,768.397 583.444,782.282 583.267,793.498C583.108,803.541 549.305,815.906 546.583,816.796C521.701,824.929 496.072,819.913 490.556,818.326C473.222,813.338 473.211,813.375 472.68,813.124C447.643,801.295 446.746,802.965 424.239,786.839C408.83,775.798 409.597,769.688 406.326,766.728C403.259,763.952 405.011,774.602 400.46,772.592C397.751,771.396 379.253,763.228 364.444,764.073C362.345,764.193 355.927,770.833 362.908,777.026C365.185,779.045 383.734,775.514 403.128,790.885C406.334,793.426 421.5,810.444 422.54,812.483C424.735,816.788 405.808,807.462 403.898,809.881C402.322,811.877 431.043,834.403 429.579,836.548C429.186,837.123 421.131,837.03 420.396,837.021C415.977,836.97 425.306,847.575 426.348,848.641C436.858,859.388 436.31,874.848 437.078,880.585C437.323,882.413 448.108,887.748 452.011,893.834C455.32,898.994 457.867,900.35 452.754,903.846C447.864,907.191 449.592,910.147 454.888,915.072C455.551,915.688 471.144,916.234 470.113,940.46C469.594,952.667 464.663,935.419 452.488,934.976C444.451,934.683 453.871,949.239 449.443,965.481C449.019,967.035 446.177,977.459 442.085,984.225C437.931,991.093 436.57,957.798 425.431,962.36C422.611,963.516 419.988,970.235 419.936,970.59C418.786,978.355 418.329,978.173 415.863,985.612C415.526,986.631 412.196,996.677 411.155,998.181C409.076,1001.186 403.332,979.853 396.219,972.777C386.53,963.14 387.219,962.51 386.297,961.764C382.466,958.666 377.588,989.323 375.368,991.393C374.541,992.164 373.093,992.728 366.013,980.788C354.958,962.143 355.266,961.098 353.445,961.408C353.384,961.418 350.012,975.193 349.59,976.531C346.854,985.206 347.814,992.442 345.09,986.834C340.635,977.667 339.396,978.438 334.984,969.262C333.579,966.34 322.768,943.857 328.037,929.335C330.988,921.199 328.331,885.904 324.425,882.599C312.166,872.225 318.752,865.06 317.962,831.482C317.835,826.095 304.447,808.528 303.501,808.543C302.059,808.567 302.948,817.718 303.025,818.512C304.442,833.103 303.372,833.025 303.077,839.485C302.739,846.883 295.431,832.436 294.934,831.304C289.364,818.618 288.868,809.76 288.093,804.575C276.567,727.501 312.035,675.723 313.588,671.531C315.232,667.095 307.621,670.184 308.419,665.49C309.669,658.142 308.733,658.053 310.363,653.443C313.749,643.867 311.67,643.423 315.195,630.406C319.966,612.787 326.255,612.468 326.229,606.503C326.186,596.517 312.395,598.403 313.975,594.708C322.596,574.54 321.614,574.159 331.99,554.79C336.024,547.258 349.932,528.758 355.776,522.748C362.206,516.137 366.024,510.569 366.467,510.423C369.814,509.32 367.003,514.568 370.484,514.755C374.026,514.946 373.928,514.668 377.457,514.791C379.834,514.874 378.645,516.198 379.278,531.51C379.488,536.585 379.946,536.472 380.608,541.488C380.964,544.194 383.023,559.809 389.947,574.304C393.174,581.06 394.919,579.114 400.504,579.146C404.635,579.17 412.921,584.56 415.923,591.298C423.04,607.272 419.414,612.416 423.302,610.133C432.758,604.583 451.643,618.821 452.588,619.367C475.097,632.381 484.241,643.286 512.581,637.95C532.263,634.244 561.227,603.577 575.491,609.524C580.017,611.411 578.879,608.223 580.028,603.436C586.588,576.102 602.372,579.137 606.564,578.862C609.963,578.638 616.53,557.581 616.55,557.514C618.674,550.155 617.727,550.005 619.304,544.423C621.961,535.011 620.665,516.321 621.43,515.452C622.756,513.945 623.056,514.814 629.508,514.759C633.044,514.729 631.484,512.779 632.219,500.417C632.473,496.158 658.599,511.034 677.157,529.843C681.924,534.675 678.186,538.33 680.773,541.248C693.34,555.42 692.556,555.928 703.049,571.764C706.885,577.552 699.751,572.61 693.436,575.349C686.49,578.362 687.836,583.057 687.902,585.49C688.002,589.129 693.608,592.381 696.121,595.768C696.807,596.692 703.685,605.958 704.783,607.256C712.96,616.918 729.912,644.676 730.082,655.503C730.376,674.223 729.002,674.069 728.415,677.486C728.126,679.166 728.497,679.274 742.635,693.363C766.573,717.219 766.521,734.734 766.276,749.499C766.145,757.397 763.509,756.781 763.312,760.495C762.867,768.882 752.268,786.548 747.76,784.023C742.483,781.068 744.174,769.596 744.172,769.557C744.019,766.599 736.739,772.7 735.89,773.833C726.061,786.949 726.41,805.943 725.777,808.561C721.947,824.419 723.961,833.703 714.31,838.015C705.425,841.985 705.942,842.894 704.291,847.428C699.176,861.481 696.005,859.543 685.538,859.823C682.858,859.895 681.079,872.929 680.913,873.658C680.031,877.526 669.323,865.98 668.44,850.503C668.162,845.626 661.436,847.476 660.785,847.915C653.98,852.496 648.272,867.706 646.583,865.417C641.663,858.749 641.317,836.124 639.208,834.956C635.129,832.698 634.125,833.548 632.854,835.696C625.86,847.512 624.699,846.908 622.646,853.598C621.729,856.588 620.017,852.874 619.612,848.492C618.555,837.055 616.975,837.312 616.966,832.5C616.931,813.951 611.585,815.649 610.517,816.521C603.646,822.133 597.717,836.244 597.923,828.484C598.268,815.473 597.825,815.498 598.18,813.426C599.903,803.358 597.672,803.398 596.966,785.5ZM570.345,439.33C568.821,440.279 567.201,440.182 568.676,441.199C568.734,441.239 571.361,441.329 571.595,441.337C571.856,441.518 574.618,443.432 574.153,444.373C573.823,445.039 571.24,446.7 570.412,447.391C569.187,448.414 566.647,450.536 550.547,449.164C548.19,448.963 548.97,439.822 548.964,438.495C548.95,435.176 547.34,435.06 545.955,433.149C539.911,424.811 536.946,432.205 534.599,432.868C530.081,434.144 530.608,432.024 527.369,428.635C522.198,423.226 524.549,430.43 523.767,433.579C521.929,440.979 529.049,437.801 535.985,449.224C537.212,451.245 542.527,459.996 539.755,478.541C539.525,480.085 537.949,490.629 534.066,497.202C531.864,500.93 505.096,480.272 466.284,499.005C462.808,500.683 458.361,487.705 457.187,470.566C456.138,455.234 450.566,483.569 450.53,487.5C450.359,506.249 449.986,508.273 455.522,513.477C458.382,516.165 460.832,513.188 463.334,518.582C468.127,528.918 468.333,537.939 467.94,554.538C467.719,563.855 463.357,563.799 467.269,587.553C469.072,598.503 487.149,608.275 486.759,612.519C485.875,622.147 469.968,607.288 468.518,606.472C457.115,600.059 456.703,592.923 433.457,591.948C430.237,591.813 430.856,586.781 430.824,586.462C430.575,583.975 426.303,572.967 424.232,570.755C414.76,560.638 403.882,562.993 402.438,562.934C401.187,562.883 399.557,562.817 396.253,548.555C394.926,542.826 394.771,542.968 394.712,542.47C391.752,517.412 392.693,517.417 392.934,492.254C392.968,488.734 385.257,496.26 384.72,496.784C378.297,503.054 384.095,469.751 389.756,453.599C408.115,401.224 423.098,403.433 423.471,398.496C423.574,397.129 416.146,397.508 415.505,397.54C410.697,397.785 407.459,403.697 406.405,404.248C402.761,406.152 408.076,394.613 403.494,396.486C397.587,398.899 392.222,411.11 391.577,412.577C391.479,412.8 390.089,414.488 389.276,410.567C385.7,393.306 399.433,365.922 434.764,386.042C436.305,386.92 437.844,387.796 456.411,381.269C463.244,378.867 479.44,379.001 481.49,379.537C494.205,382.861 495.147,384.848 497.696,386.077C504.3,389.261 504.176,379.333 528.5,379.299C551.082,379.268 558.049,389.441 565.323,386.092C576.484,380.952 576.211,379.219 590.502,379.302C597.943,379.346 607.001,387.482 608.056,390.644C609.217,394.119 588.832,387.269 579.675,394.73C569.908,402.688 581.03,402.41 588.201,406.941C593.296,410.16 585.506,421.177 579.155,426.285C576.037,428.793 585.873,427.211 583.155,430.232C576.266,437.886 574.304,438.009 570.345,439.33ZM202.593,237.3C187.345,231.362 187.175,230.919 187.078,229.535C186.995,228.354 192.933,213.841 193.484,212.493C196.104,206.089 196.921,206.573 197.782,204.611C198.313,203.404 203.438,191.73 204.894,189.736C209.288,183.721 208.326,183.194 208.749,182.713C211.161,179.966 210.146,179.316 212.646,176.644C217.687,171.255 218.51,160.868 255.808,119.792C268.776,105.51 272.11,103.499 273.31,102.293C281.064,94.503 286.406,91.091 287.245,90.243C296.175,81.216 300.317,80.291 302.363,78.353C311.909,69.307 346.961,49.754 351.615,47.714C362.919,42.757 364.194,41.913 365.114,44.61C368.096,53.346 377.022,73.222 385.341,94.572C387.254,99.484 385.153,99.553 379.693,101.872C360.44,110.049 343.96,122.01 343.404,122.368C324.126,134.797 303.23,155.81 300.026,159.032C289.257,169.862 289.916,170.374 279.709,181.701C272.188,190.048 249.039,224.299 242.237,243.414C237.328,257.207 231.907,248.039 202.593,237.3ZM691.713,149.265C691.397,149.023 688.124,146.513 687.792,146.192C673.233,132.142 671.577,133.041 668.619,130.371C663.901,126.112 649.736,117.487 646.3,114.777C644.121,113.059 640.907,112.389 639.762,111.268C636.54,108.117 633.991,109.101 631.829,107.136C627.727,103.408 626.953,104.804 622.206,101.964C617.971,99.431 611.531,97.892 612.915,94.687C614.318,91.439 626.49,60.113 626.718,59.588C631.903,47.635 632.056,43.472 634.487,44.533C645.435,49.316 645.511,49.079 646.281,49.767C651.547,54.465 653.828,53.528 655.259,54.775C658.141,57.287 669.058,62.191 670.487,63.513C672.635,65.5 673.065,64.724 675.347,66.701C677.589,68.644 677.912,68.038 680.255,69.811C684.543,73.056 684.838,72.535 685.179,72.848C692.032,79.135 692.683,78.22 693.271,78.764C704.386,89.045 705.347,87.809 706.265,88.744C707.494,89.997 708.983,91.516 722.661,103.32C741.235,119.35 764.958,149.169 768.102,153.775C776.407,165.938 776.089,166.143 776.93,167.107C787.832,179.616 811.059,225.771 810.492,228.497C810.094,230.407 764.134,249.661 763.519,249.783C761.568,250.173 757.26,239.332 756.869,238.348C754.62,232.686 754.066,233.033 751.657,227.427C750.795,225.42 742.824,210.634 731.89,195.23C726.556,187.717 726.315,187.943 725.9,187.262C720.342,178.142 713.137,171.817 711.994,170.181C708.641,165.379 698.703,156.569 691.713,149.265ZM161.966,385.5C161.787,378.097 161.375,378.142 161.362,377.5C160.741,345.769 163.099,332.794 164.212,314.483C164.335,312.46 165.31,311.97 165.508,310.501C166.393,303.948 166.027,303.981 166.148,303.426C167.75,296.064 167.926,296.111 168.007,295.461C169.392,284.353 169.967,284.456 170.024,283.486C170.365,277.72 171.8,278.002 172.344,275.462C174.505,265.37 174.058,265.288 174.371,264.449C182.057,243.819 180.145,238.472 186.573,241.351C218.962,255.859 219.473,254.562 222.212,255.975C231.203,260.612 235.946,259.349 232.965,266.719C220.826,296.736 218.177,326.783 217.808,328.577C217.377,330.671 210.993,384.585 221.826,429.426C223.865,437.864 224.045,437.813 224.151,438.56C226.065,452.058 236.275,476.225 235.049,478.239C233.963,480.024 189.218,499.348 187.414,498.643C186.783,498.396 181.086,483.541 180.915,482.429C180.2,477.797 179.211,478.125 178.178,473.57C175.161,460.27 174.062,460.614 173.906,459.444C172.941,452.195 170.001,444.5 169.997,444.457C168.764,432.669 164.32,413.811 164.248,412.526C163.569,400.417 162.983,400.543 162.968,399.496C162.866,392.408 162.255,392.533 161.966,385.5ZM492.5,13.966C515.504,14.759 515.493,14.602 517.492,14.681C523.362,14.914 527.346,15.938 532.512,16.139C541.006,16.469 540.777,17.408 541.504,17.434C542.835,17.482 544.169,17.444 545.5,17.504C547.665,17.602 547.356,18.56 549.471,18.756C557.93,19.543 557.794,20.178 558.526,20.238C562.871,20.591 577.414,24.407 577.506,24.413C581.906,24.725 596.134,29.949 596.571,30.006C602.847,30.829 609.768,34.828 620.385,38.832C623.754,40.102 621.528,43.835 617.202,54.371C609.642,72.78 610.146,72.9 609.469,74.485C602.645,90.48 603.109,92.574 599.472,91.605C598.592,91.371 589.856,89.043 588.533,88.426C582.999,85.844 548.547,75.131 514.494,74.709C511.444,74.671 503.645,66.786 503.493,66.504C499.664,59.408 497.219,60.994 485.496,61.036C482.726,61.045 481.749,62.097 480.457,62.153C476.445,62.326 476.551,62.815 472.48,63.018C434.803,64.904 428.596,83.43 421.524,85.559C409.453,89.191 409.636,89.73 408.555,89.9C401.297,91.045 400.123,93.537 397.513,93.393C396.704,93.348 396.499,93.203 392.937,84.346C376.588,43.693 375.594,44.155 374.298,40.577C372.429,35.418 382.997,34.952 388.522,32.55C399.419,27.813 402.376,28.49 406.609,26.722C415.88,22.849 436.714,19.922 437.554,19.639C445.306,17.027 445.617,18.835 453.591,16.893C464.326,14.279 483.365,14.95 492.5,13.966ZM791.966,441.5C791.76,434.325 790.719,434.565 789.253,427.581C787.546,419.453 785.696,429.73 785.221,430.206C779.487,435.957 787.805,416.373 785.06,412.877C781.01,407.72 783.969,407.069 784.337,400.483C785.37,381.993 785.748,382.105 785.769,380.503C786.287,339.149 785.354,339.208 777.988,298.466C777.039,293.218 776.175,293.512 774.922,288.379C772.449,278.258 773.141,278.077 767.957,265.299C766.614,261.988 766.442,260.009 775.49,256.477C795.207,248.78 794.678,247.71 812.445,240.38C817.89,238.134 817.39,246.333 818.595,249.462C827.922,273.678 826.053,274.237 826.928,276.309C829.053,281.339 827.832,281.608 829.431,285.528C831.238,289.96 831.897,297.251 832.345,298.562C833.803,302.829 838.796,337.761 838.828,342.5C839.012,369.441 840.037,369.346 840.033,369.503C839.646,385.185 839.071,385.138 839.071,386.5C839.061,413.199 836.594,415.646 836.087,422.457C835.162,434.876 826.932,470.436 826.056,472.26C821.71,481.31 822.688,495.272 815.595,491.337C811.442,489.032 807.607,489.493 810.15,486.248C812.013,483.87 817.294,474.41 817.887,471.581C819.481,463.978 819.967,464.157 820.03,463.491C820.578,457.682 820.97,457.828 822.21,453.447C823.207,449.923 821.122,448.354 820.509,450.505C817.398,461.42 809.943,466.806 808.47,467.101C803.708,468.054 803.913,468.533 803.505,468.477C800.919,468.117 801.817,446.876 800.914,443.361C799.074,436.209 796.668,449.353 793.444,448.664C791.281,448.202 792.324,447.322 791.966,441.5ZM657.752,209.272C644.213,193.706 619.029,176.301 617.425,175.644C616.831,175.401 613.8,174.159 610.628,171.364C604.766,166.201 602.885,169.164 597.218,163.791C593.644,160.402 585.71,163.515 589.319,154.414C595.869,137.894 595.821,137.887 596.424,136.465C601.447,124.614 601.018,124.505 601.525,123.513C606.461,113.848 605.403,108.01 610.638,110.173C619.248,113.731 623.075,116.65 623.39,116.784C635.032,121.709 649.777,132.516 650.748,133.033C656.189,135.925 655.531,136.748 660.665,140.248C661.991,141.153 662.259,140.648 679.164,154.89C701.827,173.982 734.457,215.411 749.051,250.714C751.207,255.929 749.769,256.58 744.596,258.688C714.764,270.842 715.176,271.668 712.556,272.643C707.569,274.498 707.159,267.741 692.869,257.108C691.95,256.425 677.48,228.766 657.752,209.272ZM349.027,138.489C348.301,152.301 348.435,152.261 348.175,153.43C347.066,158.42 356.077,158.591 357.699,153.592C363.812,134.745 375.707,137.928 371.282,131.654C369.091,128.547 370.54,128.283 370.916,124.572C371.484,118.982 372.564,119.327 377.588,116.652C391.313,109.343 392.305,110.174 392.696,111.393C393.731,114.624 393.655,114.599 395.269,117.62C397.995,122.721 387.575,124.582 391.328,130.608C392.515,132.514 392.472,132.446 393.184,134.605C394.239,137.806 396.61,134.71 399.927,138.071C401.993,140.165 405.277,140.073 404.074,143.356C401.127,151.397 384.499,167.44 380.779,175.622C378.465,180.71 349.871,197.866 328.482,226.484C317.274,241.48 317.658,241.681 312.615,250.574C309.533,256.01 307.375,259.015 306.872,259.716C306.449,260.304 307.816,260.972 302.94,267.87C300.565,271.229 300.501,276.388 297.497,275.514C296.202,275.138 252.887,257.318 251.652,256.305C248.083,253.376 256.315,244.66 257.84,238.575C258.944,234.167 260.803,235.094 261.992,230.602C262.182,229.885 262.596,230.097 266.427,222.456C266.685,221.942 267.15,222.353 270.291,216.388C272.922,211.391 276.669,208.313 278.967,201.657C280.419,197.452 286.026,194.075 288.039,191.194C288.986,189.838 289.32,190.148 301.55,175.542C307.127,168.881 328.583,147.942 336.213,143.045C340.703,140.163 340.301,139.741 344.752,136.877C345.025,136.701 347.788,134.924 348.551,135.432C348.757,135.569 348.586,135.653 349.027,138.489ZM227.966,359.5C228.107,349.258 228.181,349.314 228.376,345.492C228.475,343.555 229.232,328.706 231.242,321.417C232.431,317.104 234.269,303.787 234.414,303.46C235.233,301.597 241.827,276.72 241.853,276.66C244.983,269.364 244.23,265.113 251.642,268.171C255.051,269.577 293.407,285.404 294.177,285.942C296.096,287.284 287.187,306.64 284.985,322.526C284.637,325.04 284.529,324.943 284.097,327.434C277.08,367.91 283.619,406.425 284.315,408.574C285.568,412.441 284.311,412.643 285.313,415.556C289.885,428.834 288.487,429.179 288.934,430.31C295.369,446.585 294.305,446.927 294.884,448.33C296.965,453.379 294.443,453.177 289.378,455.258C277.172,460.274 275.952,461.16 274.851,458.384C272.916,453.503 270.426,453.334 268.918,451.143C262.237,441.439 261.417,442.145 260.999,441.22C256.251,430.702 256.5,430.615 256.041,429.725C255.549,428.771 254.177,426.114 250.507,417.496C248.808,413.508 242.778,412.883 240.985,416.69C239.991,418.801 239.567,418.48 238.495,420.497C233.149,430.556 231.913,416.785 231.852,416.427C227.034,388.12 227.966,370.72 227.966,359.5ZM300.033,606.464C299.902,609.614 298.403,611.108 301.527,611.211C302.89,611.256 311.694,609.317 306.496,618.497C306.05,619.284 301.21,627.831 301.219,628.49C301.235,629.778 301.211,629.765 299.59,644.508C298.796,651.721 293.987,644.539 287.812,640.078C284.409,637.62 253.333,608.585 242.068,592.792C240.88,591.127 240.373,591.524 226.659,572.384C223.714,568.274 219.197,560.502 218.584,559.447C211.128,546.621 209.073,547.779 196.085,518.69C195.852,518.168 195.834,518.249 192.778,512.362C191.06,509.052 196.157,508.267 199.783,505.953C201.58,504.807 217.674,498.852 238.321,489.095C242.67,487.039 243.472,497.634 248.651,505.398C250.797,508.615 254.953,517.456 255.456,518.527C256.49,520.726 260.669,526.119 261.16,526.752C261.628,527.356 262.014,529.429 263.711,531.338C268.05,536.221 266.513,537.318 273.28,544.701C277.72,549.544 276.25,550.719 287.155,561.815C287.989,562.664 287.661,562.941 297.068,572.917C304.171,580.449 308.737,581.378 303.472,592.484C302.579,594.368 302.786,594.42 300.033,606.464ZM713.499,589.966C717.257,590.275 731.244,594.924 726.888,589.236C726.388,588.584 726.782,588.374 721.89,580.265C720.105,577.307 720.98,576.863 718.698,574.323C718.34,573.924 714.125,566.998 713.324,564.534C712.545,562.137 714.86,562.925 732.04,539.189C744.013,522.645 743.319,520.725 746.308,517.353C748.591,514.777 747.115,513.936 749.445,511.447C752.991,507.659 751.606,506.833 754.643,502.599C756.496,500.015 758.876,485.89 762.287,490.661C762.576,491.066 764.777,495.986 767.517,494.524C770.342,493.015 767.13,488.775 771.52,489.384C773.021,489.593 774.672,488.538 774.645,491.493C774.597,496.822 772.752,502.134 775.44,502.755C780.005,503.809 775.113,512.064 780.39,510.184C786.59,507.976 786.379,505.055 792.509,507.477C798.709,509.927 798.529,496.241 806.559,499.361C813.363,502.004 815.699,501.957 813.789,506.615C807.641,521.612 806.965,523.95 806.516,525.505C806.247,526.436 805.231,525.9 801.049,536.308C799.303,540.652 798.377,540.105 796.779,544.598C796.562,545.208 796.085,544.845 792.769,551.627C792.484,552.208 792.427,552.071 788.512,558.508C762.079,601.965 734.101,627.936 732.475,627.564C730.959,627.217 731.494,623.386 726.798,618.218C725.356,616.632 724.433,611.945 723.305,610.676C720.807,607.865 709.698,593.23 709.428,592.523C708.252,589.452 710.285,590.19 713.499,589.966ZM468.5,366.034C464.18,365.584 463.393,366.37 463.145,364.547C462.303,358.366 471.018,360.045 475.519,359.955C479.327,359.88 480.45,357.657 482.491,357.473C492.619,356.56 478.594,354.17 478.556,354.158C474.962,353.1 477.92,348.762 467.46,344.57C465.684,343.858 466.405,338.536 461.339,337.977C458.891,337.707 460.557,334.428 463.411,333.294C468.55,331.254 465.286,329.286 459.097,322.887C456.293,319.986 454.706,320.847 453.705,320.198C452.203,319.225 453.533,316.295 459.408,318.695C461.819,319.68 469.92,313.935 471.569,313.804C477.135,313.362 470.738,310.207 471.959,306.685C473.002,303.676 472.955,303.737 472.968,300.474C472.987,295.727 479.055,295.765 481.271,300.589C482.087,302.365 477.765,301.853 476.713,302.763C469.699,308.827 486.705,316.255 488.599,317.336C495.551,321.305 495.455,317.54 497.788,315.854C502.537,312.421 500.939,308.297 502.907,305.805C506.858,300.804 505.792,300.273 508.422,294.446C509.34,292.41 528.572,293.64 547.271,309.769C564.87,324.95 571.229,345.362 571.872,350.453C573.247,361.353 575.479,369.576 570.463,368.935C566.473,368.425 566.579,368.31 562.513,368.163C557.199,367.97 556.143,359.269 551.677,361.824C547.758,364.065 547.619,363.642 543.702,365.848C538.799,368.607 534.76,366.05 532.49,365.541C520.607,362.875 499.916,372.346 498.452,371.595C484.655,364.517 483.91,367.217 468.5,366.034ZM613.5,503.034C612.137,503.154 610.758,502.959 609.394,503.079C604.981,503.468 614.14,516.08 608.268,544.454C606.667,552.187 601.757,561.933 601.435,553.504C600.895,539.353 595.303,527.304 594.261,531.347C593.69,533.558 587.309,558.302 583.36,557.737C582.703,557.643 583.176,557.278 582.086,549.543C580.797,540.399 582.427,540.206 578.208,523.61C576.098,515.307 575.37,526.706 573.729,531.564C568.383,547.379 561.036,550.149 560.004,548.937C559.358,548.178 565.377,522.616 560.76,515.323C551.555,500.782 545.334,504.03 546.502,500.5C548,495.97 548.171,496.097 549.244,491.432C552.324,478.035 550.636,475.937 551.017,467.404C551.408,458.682 574.681,487.859 571.56,479.49C569.087,472.86 565.312,468.912 563.784,466.381C563.691,466.227 561.213,462.124 565.368,464.789C578.669,473.324 593.671,472.422 586.388,469.79C584.559,469.129 566.774,462.701 565.403,457.527C564.649,454.68 569.024,456.993 569.523,457.012C582.322,457.498 583.328,455.195 583.76,454.956C615.887,437.187 620.292,497.168 620.787,499.458C621.882,504.53 618.729,502.587 613.5,503.034ZM547.918,273.56C548.468,270.016 548.307,269.781 548.727,269.811C549.6,269.874 550.392,271.341 550.485,271.513C552.565,275.367 562.038,272.287 562.099,268.483C562.17,264.115 555.226,266.236 552.6,262.434C550.77,259.784 549.637,258.307 552.811,257.975C555.007,257.745 553.257,256.787 551.568,255.442C549.548,253.833 553.783,250.343 553.679,249.468C553.183,245.268 554.027,245.422 555.725,241.593C558.005,236.454 559.395,241.177 566.374,244.722C572.034,247.597 573.883,237.223 578.165,240.902C588.239,249.558 595.409,250.797 615.081,275.789C622.375,285.057 634.178,304.631 632.227,307.267C631.717,307.957 584.743,327.967 580.599,329.733C574.01,332.539 578.062,313.79 542.183,290.964C539.018,288.95 536.051,288.242 541.273,278.346C542.726,275.592 545.788,278.858 547.918,273.56ZM630.954,211.52C630.797,208.426 630.614,208.503 629.038,205.771C625.029,198.823 631.557,201.137 632.255,201.783C639.443,208.441 638.893,208.911 639.529,209.47C643.41,212.882 665.261,232.094 680.033,259.791C691.139,280.611 690.414,281.987 688.588,282.687C680.816,285.667 681.219,286.37 673.553,289.619C671.943,290.301 653.905,297.947 653.406,298.077C645.545,300.116 644.388,303.528 642.984,300.338C640.679,295.102 633.963,283.182 633.136,281.713C631.013,277.946 630.575,278.338 628.325,274.622C615.153,252.861 586.484,232.601 586.448,232.581C583.633,231.028 583.927,230.693 581.187,228.952C580.849,228.738 574.228,224.531 579.466,224.257C581.129,224.17 582.799,224.288 584.46,224.178C589.831,223.822 590.81,221.345 593.581,222.239C600.804,224.57 600.609,225.587 610.5,225.614C616.69,225.631 618.651,227.476 620.417,221.469C622.598,214.047 629.267,219.14 630.954,211.52ZM713.494,461C722.199,463.777 739.198,471.873 743.405,472.982C743.915,473.117 743.752,473.503 749.491,475.521C753.957,477.092 749.754,482.511 748.436,485.474C732.702,520.851 706.783,554.603 704.558,552.422C702.437,550.343 698.267,544.083 697.764,543.327C696.085,540.806 696.78,540.455 694.743,538.259C691.294,534.541 695.658,530.504 694.141,528.815C689.611,523.77 682.614,518.255 679.07,513.853C675.722,509.694 670.948,509.117 675.436,504.439C676.511,503.319 679.869,499.819 686.537,488.525C692.634,478.199 691.433,476.403 699.597,473.841C705.412,472.016 708.618,462.651 713.494,461ZM696.034,315.5C696.018,320.7 696.423,322.998 695.39,326.463C694.637,328.991 697.043,334.05 695.564,335.55C692.681,338.476 686.917,340.242 686.629,349.502C686.302,359.962 688.294,367.606 681.381,377.415C679.369,380.27 679.849,383.521 673.818,392.714C671.5,396.247 674.145,399.322 671.005,406.247C668.072,412.717 669.617,413.604 664.591,418.588C660.945,422.204 664.745,429.24 658.257,425.97C651.804,422.717 647.479,424.413 649.682,417.584C651.452,412.095 650.163,411.75 652.646,406.581C653.278,405.265 656.956,382.803 656.966,369.5C657.002,319.575 642.525,314.281 650.422,311.333C660.863,307.436 691.528,292.488 693.371,293.711C695.556,295.161 693.667,296.708 696.257,305.556C696.481,306.32 696.123,306.262 696.034,315.5ZM292.966,360.5C293.052,356.033 293.127,355.033 293.568,354.557C296.056,351.869 296.03,351.847 297.096,348.363C299.006,342.118 306.227,349.283 308.051,342.411C310.649,332.624 316.507,330.543 317.754,334.418C320.497,342.942 309.169,347.827 312.856,355.326C314.735,359.146 316.079,370.892 324.16,358.279C327.08,353.721 330.051,354.024 330.899,359.441C331.813,365.282 328.371,363.464 327.446,364.452C324.756,367.328 332.112,367.655 333.004,373.558C333.984,380.048 334.466,379.933 334.535,380.497C335.765,390.567 346.128,394.524 346.878,397.405C348.203,402.494 347.35,402.59 349.577,409.47C354.864,425.797 354.335,426.229 353.217,427.141C350.335,429.492 349.84,428.542 310.608,445.739C306.929,447.351 307.338,444.562 303.544,434.484C301.856,429.998 302.229,429.966 300.912,425.396C299.066,418.989 298.696,418.75 301.441,413.46C302.939,410.574 307.442,417.157 308.064,412.417C309.349,402.625 300.21,400.047 297.65,401.919C295.493,403.495 294.915,397.736 294.967,396.499C295.435,385.482 302.941,399.475 306.194,396.167C308.026,394.304 308.499,396.29 309.498,396.506C315.889,397.887 302.774,374.643 301.973,367.482C301.223,360.777 296.296,367.875 295.657,368.614C293.732,370.84 296.499,389.125 295.273,390.303C291.618,393.818 292.014,375.579 291.782,374.425C290.392,367.491 292.795,367.621 292.966,360.5ZM622.966,405.5C622.936,404.529 622.677,396.138 621.717,393.422C621.466,392.71 618.854,385.316 618.335,384.617C613.931,378.681 614.659,378.235 614.215,377.775C601.255,364.349 590.021,366.16 587.396,365.896C585.253,365.681 584.976,355.409 584.951,354.474C584.899,352.562 582.295,343.878 583.234,341.374C583.27,341.277 599.091,333.631 602.415,332.315C603.448,331.905 607.553,330.279 615.29,327.087C633.516,319.569 636.019,314.684 638.301,320.588C643.203,333.272 643.394,341.74 643.615,342.467C646.438,351.75 644.208,352.03 645.297,355.576C647.596,363.061 644.043,397.295 642.04,401.22C640.734,403.781 641.097,403.847 640.936,406.543C640.873,407.601 639.267,410.391 638.988,412.543C638.069,419.617 634.724,416.449 625.594,412.273C621.859,410.565 623.139,409.541 622.966,405.5ZM349.5,257.034C330.806,258.174 332.443,264.319 333.171,269.569C333.533,272.184 338.608,274.636 338.704,277.483C339.122,289.825 339.154,292.65 335.576,291.312C333.695,290.608 333.826,290.33 312.356,281.791C309.769,280.762 311.994,279.823 315.428,269.472C315.504,269.244 318.298,263.181 322.259,258.316C322.303,258.263 325.248,252.773 328.136,249.186C328.511,248.721 328.249,248.571 331.939,242.77C335.256,237.557 363.366,202.6 376.505,197.509C381.33,195.64 388.363,186.378 397.395,182.252C400.89,180.656 400.805,179.418 404.428,180.669C410.069,182.616 420.129,178.399 421.657,181.407C422.014,182.11 421.893,182.047 425.6,190.453C428.25,196.461 419.133,193.713 418.661,193.292C414.734,189.795 412.695,186.007 402.853,195.839C394.77,203.915 392.24,208.29 391.529,209.52C390.664,211.016 385.941,214.604 385.008,220.441C384.847,221.448 379.55,233.462 386.426,229.375C390.919,226.705 392.904,229.592 398.189,222.286C398.787,221.459 402.981,215.662 410.597,219.335C412.128,220.074 412.481,222.812 409.545,222.954C401.601,223.337 401.412,223.832 397.116,229.102C394.745,232.01 391.149,227.175 380.408,240.43C367.927,255.831 362.124,250.528 359.994,254.783C358.919,256.93 359.405,260.005 355.244,257.969C352.571,256.661 352.513,257.191 349.5,257.034ZM553.484,91.962C565.584,94.46 568.157,94.523 581.483,99.553C584.525,100.702 584.807,99.476 591.574,102.336C595.783,104.115 597.687,104.011 596.036,108.361C590.365,123.303 582.382,143.33 581.173,146.362C579.701,150.056 579.531,156.417 574.618,154.219C568.693,151.569 568.505,152.355 564.542,151.357C560.378,150.307 560.824,149.245 556.584,148.246C551.389,147.023 536.13,144.857 540.776,139.74C543.737,136.479 546.992,133.681 537.467,128.555C535.944,127.735 528.154,120.608 527.573,117.482C527.453,116.834 527.424,116.173 527.321,115.523C527.161,114.519 524.706,111.403 527.757,109.998C550.216,99.65 525.227,93.697 525.515,88.507C525.581,87.312 545.359,89.387 551.44,91.651C551.595,91.709 551.591,91.674 553.484,91.962ZM373.034,469.493C370.396,485.152 373.659,487.195 361.904,497.924C358.703,500.846 359.454,501.575 355.769,503.934C349.671,507.838 349.592,514.416 345.164,508.756C339.896,502.022 339.246,502.583 331.007,490.876C324.799,482.055 324.175,481.041 326.595,478.59C331.476,473.646 329.073,472.306 324.153,461.687C322.671,458.488 316.395,455.097 320.4,453.297C329.348,449.276 333.963,447.931 338.381,445.32C340.271,444.203 357.993,436.869 358.448,436.949C360.257,437.267 364.273,449.01 370.017,455.925C371.414,457.607 373.955,462.069 374.269,462.621C375.92,465.521 373.404,465.438 373.034,469.493ZM302.5,510.034C301.818,509.949 301.122,510.006 300.44,509.92C296.876,509.475 289.275,494.945 294.422,494.079C297.817,493.508 296.287,492.065 294.9,490.219C292.065,486.444 292.134,483.864 290.25,481.741C287.372,478.499 287.082,474.043 285.084,471.881C281.832,468.362 285.69,468.438 296.286,464.067C303.02,461.289 301.536,466.233 311.693,483.376C327.731,510.445 331.977,512.197 335.044,515.923C338.541,520.172 341.617,520.718 337.65,524.645C332.068,530.171 331.181,534.537 329.68,536.622C321.769,547.613 320.695,550.984 319.369,547.566C316.351,539.781 316.879,539.587 312.652,532.425C311.568,530.588 313.474,527.233 312.619,524.461C310.967,519.101 310.994,519.158 310.746,513.477C310.565,509.343 302.677,510.044 302.5,510.034ZM753.509,321.036C753.269,320.992 750.508,320.487 750.508,320.487C748.656,319.538 742.354,306.888 742.274,306.566C741.112,301.885 740.37,302.214 739.155,297.589C737.758,292.27 738.453,292.094 734.777,283.369C733.28,279.817 729.833,278.365 730.465,276.479C730.741,275.655 753.857,266.167 754.558,266.302C756.41,266.659 755.909,267.348 762.741,288.42C762.922,288.976 764.472,293.756 764.735,295.454C766.312,305.635 771.729,320.979 767.572,321.854C764.354,322.532 764.586,322.907 762.205,325.172C759.902,327.362 758.749,321.811 753.509,321.036ZM665.034,467.5C664.453,477.626 663.146,483.271 667.737,479.881C671.487,477.112 667.979,483.194 671.788,486.193C673.966,487.909 663.323,500.059 663.277,500.083C660.167,501.716 653.555,494.731 647.414,492.774C640.95,490.714 641.929,488.791 635.459,486.609C628.941,484.412 625.411,474.786 628.461,474.328C633.828,473.521 634.245,475.019 638.765,471.904C639.055,471.704 643.27,470.068 644.226,469.194C650.947,463.051 651.869,463 651.276,458.552C650.842,455.295 654.367,453.15 656.25,454.813C658.982,457.226 658.89,457.49 662.466,457.978C665.24,458.357 665.515,459.289 665.034,467.5ZM295.966,328.5C296.661,321.169 298.486,321.685 299.014,317.468C299.536,313.299 300.128,313.494 301.028,309.392C302.708,301.74 303.096,301.961 305.796,294.61C307.487,290.004 309.588,292.397 337.35,303.829C339.134,304.563 339.578,308.937 337.215,311.214C332.693,315.57 328.486,317.438 327.635,317.816C324.897,319.032 326.238,319.911 325.92,324.567C325.782,326.579 321.423,329.948 316.41,328.94C309.808,327.611 310.8,332.269 308.489,332.372C303.486,332.595 309.224,322.788 309.473,320.501C310.243,313.435 304.202,326.821 298.796,331.879C294.193,336.187 295.966,328.644 295.966,328.5ZM487.573,514.231C487.503,514.247 486.942,513.493 486.492,514.493C485.944,515.714 484.324,526.8 483.282,530.423C482.999,531.406 483.214,537.927 481.415,536.645C481.288,536.555 476.633,523.723 476.225,522.596C472.663,512.776 472.195,509.6 482.419,507.229C504.041,502.215 531.511,506.318 531.551,512.5C531.57,515.466 524.047,545.975 523.064,533.611C522.979,532.545 522.594,532.634 520.389,520.516C519.506,515.66 520.622,511.656 517.62,514.636C516.932,515.318 515.523,519.995 512.467,518.575C505.269,515.232 505.107,514.356 497.474,516.414C493.882,517.382 491.652,522.129 488.272,514.656C488.039,514.514 487.806,514.372 487.573,514.231ZM489.5,207.034C466.115,208.404 466.651,211.427 457.551,212.867C451.55,213.816 447.347,217.051 448.071,212.457C448.16,211.891 449.127,205.757 449.254,205.398C451.073,200.247 455.235,204.103 463.764,198.874C465.18,198.006 466.37,197.277 484.485,197.696C486.599,197.745 486.308,198.768 488.462,198.884C494.723,199.223 494.502,197.742 496.895,194.799C498.885,192.351 507.585,193.853 510.41,196.594C515.422,201.456 520.27,199.86 521.399,202.552C525.342,211.949 511.369,203.971 489.5,207.034ZM507.502,253.968C515.691,255.691 515.75,255.308 516.334,255.73C519.398,257.946 512.728,268.793 518.567,265.602C520.135,264.745 520.46,258.165 520.493,257.499C520.685,253.604 523.64,256.909 531.537,252.562C537.425,249.319 541.038,250.217 538.552,253.534C536.566,256.182 537.5,257.792 536.848,259.622C528.568,282.878 528.636,283.459 526.561,283.786C518.862,284.999 523.04,271.334 522.47,270.518C520.048,267.053 519.261,269.375 515.355,271.109C514.614,271.438 512.887,271.667 512.082,261.53C511.65,256.095 504.135,258.106 503.59,265.505C503.381,268.334 499.33,269.912 501.261,274.622C501.421,275.014 503.265,279.512 500.591,279.882C495.472,280.59 497.284,277.181 493.226,273.869C491.81,272.713 484.48,277.267 483.55,275.472C481.714,271.927 492.22,272.607 490.624,268.454C489.625,265.855 489.825,265.172 492.52,264.599C496.455,263.763 494.056,259.318 496.663,256.666C497.289,256.029 498.1,255.205 507.502,253.968ZM477.945,580.563C480.331,571.107 480.176,570.996 480.656,570.675C482.904,569.17 481.109,572.301 487.343,585.584C490.282,591.847 490.898,585.648 491.022,585.262C492.178,581.663 495.297,589.291 509.601,584.89C513.803,583.597 513.078,585.817 513.237,587.579C513.718,592.896 520.584,578.61 521.632,570.545C522.689,562.416 528.54,586.23 525.32,590.36C517.159,600.828 498.045,601.661 491.401,598.753C480.47,593.968 474.928,591.885 477.945,580.563ZM657.034,445.499C656.417,451.602 653.055,449.482 649.595,454.562C649.521,454.67 647.488,463.491 641.585,465.689C638.318,466.906 638.235,465.907 630.609,460.301C627.415,457.952 632.867,457.659 637.207,445.385C638.353,442.142 639.577,442.852 640.784,439.586C642.737,434.306 642.232,431.565 647.503,433.493C650.415,434.557 657.422,435.663 657.285,440.493C657.274,440.894 657.266,440.864 657.034,445.499ZM359.958,406.494C359.472,399.634 358.334,399.852 358.016,394.493C357.709,389.324 360.869,393.752 361.445,393.83C364.486,394.246 360.652,383.046 365.321,387.693C367.874,390.234 369.9,390.905 366.933,392.999C364.517,394.705 372.603,400.395 363.836,405.983C362.513,406.827 364.036,411.446 364.792,412.171C367.805,415.06 368.16,412.55 369.894,408.732C371.211,405.833 373.177,409.484 376.678,411.072C378.767,412.02 378.632,416.011 376.317,417.008C371.632,419.028 362.727,424.987 359.958,406.494ZM617.691,429.586C617.927,429.048 620.354,423.511 621.425,423.263C622.905,422.919 632.42,427.226 632.634,427.358C633.905,428.142 635.403,430.182 621.244,442.146C619.635,443.505 614.439,438.526 617.691,429.586ZM453.994,230.489C454.148,229.999 453.804,228.786 455.644,227.989C461.931,225.263 461.56,224.73 467.708,221.923C471.164,220.345 474.696,223.872 473.606,226.553C468.391,239.385 464.03,235.463 463.243,234.756C461.725,233.39 456.21,233.049 458.214,236.642C459.871,239.614 454.958,238.83 455.34,235.486C455.641,232.845 454.688,233.062 453.994,230.489ZM265.027,499.52C266.021,506.696 272.101,515.851 267.72,514.13C265.542,513.275 265.976,509.228 261.903,504.168C261.688,503.9 252.023,485.568 252.597,483.546C252.797,482.843 255.928,478.451 260.185,488.618C261.624,492.054 263.652,492.063 265.027,499.52ZM533.464,221.946C534.281,222.057 545.358,223.551 542.266,227.318C538.861,231.464 537.925,228.917 532.496,228.725C523.717,228.414 522.969,228.541 517.946,221.265C515.782,218.131 526.117,220.762 533.464,221.946ZM246.062,461.569C247.148,464.981 253.507,473.151 248.478,472.881C246.139,472.755 242.962,461.506 242.664,460.45C242.104,458.469 235.839,445.545 239.516,446.454C241.96,447.058 245.704,460.301 246.062,461.569ZM502.595,222.272C502.225,222.105 494.827,218.789 502.457,217.199C504.703,216.731 509.995,220.716 510.102,220.85C515.146,227.171 515.602,226.757 515.74,227.437C516.812,232.717 510.244,226.332 502.595,222.272ZM444.285,191.722C445.811,193.099 448.569,193.395 446.149,199.362C443.091,206.906 437.187,190.481 436.819,189.457C436.671,189.047 437.394,187.785 438.567,188.254C439.064,188.452 438.915,188.564 444.285,191.722ZM371.974,439.509C371.954,436.335 371.144,436.576 370.267,433.534C369.725,431.653 371.118,431.046 372.198,432.755C372.595,433.383 375.785,438.427 378.411,439.668C384.113,442.362 379.605,449.079 377.793,447.207C373.304,442.571 372.266,443.1 371.974,439.509ZM410.277,110.208C406.703,113.313 404.823,115.098 403.444,110.523C401.965,105.613 402.496,104.641 407.449,103.303C408.128,103.119 414.992,104.757 413.24,107.331C412.48,108.449 412.377,108.317 410.277,110.208ZM733.268,452.777C743.73,463.464 726.459,454.063 722.528,452.434C720.259,451.494 719.313,450.645 721.377,449.344C725.19,446.94 729.664,450.413 733.268,452.777ZM318.077,460.564C318.879,462.959 321.444,468.833 317.354,466.743C314.182,465.123 311.116,456 315.458,455.327C316.71,455.133 317.963,460.109 318.077,460.564ZM307.5,560.998C308.053,561.062 314.753,561.833 313.508,564.503C311.436,568.946 310.836,568.832 310.423,568.754C310.1,568.693 304.054,562.639 303.997,562.348C303.615,560.392 304.858,561.305 307.5,560.998ZM384.019,431.502C381.607,438.285 374.504,428.951 380.334,427.039C383.739,425.923 383.978,431.348 384.019,431.502ZM439.414,232.311C441.176,231.814 442.725,230.521 443.688,234.471C444.741,238.787 434.043,236.741 439.414,232.311ZM449.251,321.759C452.983,325.926 448.87,325.452 448.651,325.269C448.432,325.087 438.667,316.018 449.251,321.759ZM624.318,446.325C624.111,446.55 620.441,450.533 620.69,447.501C620.914,444.775 627.717,440.205 624.318,446.325ZM492.707,295.294C491.063,289.003 495.787,293.211 495.832,293.402C496.431,295.977 495.226,296.045 492.707,295.294ZM570.345,439.33C570.542,439.766 569.756,440.176 571.046,440.882C571.395,441.073 571.257,441.152 571.595,441.337C571.361,441.329 568.734,441.239 568.676,441.199C567.201,440.182 568.821,440.279 570.345,439.33Z" style="fill:rgb(90,45,136);"/>
        <path d="M222.5,724.966C221.32,724.873 184.476,718.766 183.52,718.446C178.252,716.685 178.165,717.191 177.724,717.007C175.165,715.938 175.044,716.654 172.397,715.88C160.279,712.336 160.289,712.403 159.289,711.958C153.576,709.416 152.125,711.536 135.582,702.356C127.635,697.946 127.854,697.794 120.311,692.796C101.812,680.537 101.936,680.452 86.011,664.962C54.045,633.867 48.536,613.276 43.224,603.652C38.354,594.826 34.148,575.324 34.159,575.286C35.633,570.142 40.807,587.071 43.766,590.241C45.227,591.806 53.352,602.723 54.79,604.21C83.218,633.582 108.655,641.16 152.424,664.639C170.412,674.289 172.028,675.608 198.735,697.193C202.137,699.943 214.333,708.391 215.46,707.449C220.36,703.355 172.415,684.948 162.649,608.483C160.867,594.529 161.103,594.574 160.733,593.417C158.928,587.78 158.281,579.786 158.211,579.628C156.025,574.658 157.747,571.671 156.648,568.44C155.946,566.38 155.742,562.962 152.886,552.393C147.769,533.459 146.314,534.078 145.88,532.443C143.774,524.504 148.45,533.012 153.801,539.241C163.634,550.687 182.096,579.766 189.01,593.739C193.149,602.106 202.01,626.672 206.119,640.604C206.693,642.552 212.074,660.797 214.157,664.693C216.927,669.875 216.215,670.077 218.405,675.537C223.183,687.452 223.811,687.044 229.885,698.3C233.999,705.922 234.082,705.761 239.089,712.779C246.013,722.484 256.215,731.183 256.384,731.544C257.633,734.216 252.064,731.434 251.514,731.352C241.116,729.795 241.396,728.676 240.491,728.583C233.835,727.904 232.413,725.867 222.5,724.966Z" style="fill:rgb(90,45,136);"/>
        <path d="M427.811,679.034C428.668,678.617 429.218,679 429.173,677.465C429.023,672.346 428.753,672.43 429.037,667.329C429.393,660.909 440.225,682.027 441.884,684.189C445.483,688.878 460.731,714.816 463.109,709.292C468.834,695.995 471.634,697.734 472.242,698.675C477.739,707.177 476.545,708.085 489.668,721.325C495.085,726.789 494.54,714.806 496.925,709.831C498.677,706.177 506.981,724.718 508.06,720.347C510.649,709.853 509.936,709.753 513.066,699.354C514.639,694.131 514.397,689.701 516.656,690.285C517.287,690.448 516.998,715.557 519.639,717.217C520.436,717.718 521,717.426 524.509,706.504C527.197,698.139 527.294,708.098 529.081,716.687C530.933,725.593 531.871,712.401 532.133,711.41C532.95,708.325 536.094,692.002 536.655,691.652C539.378,689.955 538.599,692.449 539.993,695.279C541.122,697.574 551.263,713.032 552.658,714.274C555.406,716.721 561.467,698.52 563.18,703.616C565.495,710.507 564.437,710.86 564.986,711.147C566.645,712.015 566.197,710.676 567.243,708.372C567.843,707.05 572.903,684.883 572.898,684.525C572.739,673.181 576.955,688.559 580.513,698.495C580.927,699.653 581.297,706.212 583.855,700.721C589.966,687.6 593.917,658.239 594.423,654.478C594.62,653.019 596.748,652.807 597.074,654.571C598.187,660.589 598.098,660.528 599.708,666.439C600.163,668.11 605.182,686.541 605.817,687.207C608.956,690.494 619.706,668.375 620.595,666.547C626.216,654.982 625.143,654.568 625.635,653.568C627.536,649.707 626.995,649.598 628.365,645.449C632.256,633.671 631.572,608.729 626.722,597.406C621.031,584.121 634.442,580.514 641.166,589.739C642.254,591.232 644.997,604.113 645.023,604.515C645.199,607.161 645.943,606.932 646.132,609.542C647.068,622.49 647.488,622.378 647.501,623.5C647.799,649.187 642.195,669.172 613.162,703.179C612.207,704.297 603.591,714.39 600.488,716.481C598.577,717.769 599.236,715.893 598.415,713.529C596.217,707.196 597.035,706.675 596.464,706.661C595.476,706.637 591.027,717.382 587.055,723.222C587.011,723.287 572.813,741.762 571.335,742.094C569.351,742.539 570.27,741.139 569.971,734.345C569.736,728.997 561.229,743.201 558.515,743.166C555.98,743.133 557.609,732.084 553.008,739.155C548.708,745.762 543.793,722.75 543.74,731.565C543.689,739.859 542.972,739.786 542.968,740.504C542.87,758.852 543.219,758.841 543.157,760.435C543.038,763.544 541.689,760.82 539.146,758.956C532.473,754.065 532.894,753.672 526.33,748.754C522.559,745.929 520.125,765.803 517.437,765.686C516.927,765.664 514.463,754.28 513.838,750.407C512.842,744.24 509.895,752.818 507.022,757.187C505.292,759.817 495.622,769.462 495.5,769.499C492.871,770.299 495.323,764.745 496.597,750.505C497.347,742.13 491.304,743.328 487.894,740.065C477.006,729.649 478.364,728.5 477.403,727.62C475.043,725.458 475.906,728.377 475.612,731.51C475.194,735.966 475.426,738.722 471.509,736.484C461.161,730.572 455.933,723.101 454.751,724.656C454.337,725.202 455.038,733.854 455.246,734.559C458.039,744.036 450.999,732.501 439.619,721.383C436.161,718.004 417.272,691.743 415.305,688.62C411.111,681.962 407.713,706.805 404.528,699.482C400.974,691.31 400.378,691.653 397.928,685.295C388.219,660.104 389.132,659.791 388.166,657.654C385.958,652.768 381.16,669.265 379.48,663.51C375.959,651.45 372.19,648.448 368.946,641.301C363.967,630.331 356.266,618.885 362.775,611.747C369.155,604.75 380.559,631.148 384.763,635.207C388.419,638.736 394.867,620.288 397.502,620.494C398.166,620.546 397.983,626.018 397.967,626.5C397.637,636.404 401.549,653.219 402.347,655.556C406.138,666.655 406.276,668.853 408.114,667.019C410.652,664.486 410.476,664.423 413.26,662.191C417.424,658.852 417.137,663.086 427.811,679.034Z" style="fill:rgb(90,45,136);"/>
        <path d="M0,445.5L0,441.5C2.341,441.312 2.794,441.251 3.327,443.554C12.762,484.375 44.292,508.39 65.897,533.126C68.092,535.639 75.372,542.935 76.209,543.775C82.049,549.628 91.745,563.394 92.998,565.173C102.93,579.274 117.834,606.257 120.054,601.304C120.904,599.407 108.244,586.065 103.86,562.436C103.562,560.829 101.279,557.71 100.974,549.489C100.946,548.736 98.752,522.552 100.139,518.361C102.175,512.205 99.615,506.58 103.637,493.554C104.599,490.437 106.485,477.163 107.7,473.576C108.199,472.103 107.682,472.016 111.073,454.43C111.667,451.349 110.03,451.141 112.215,445.393C113.063,443.16 110.97,420.091 114.513,430.493C118.754,442.945 119.613,442.648 122.127,455.577C124.963,470.155 125.497,471.413 126.046,472.707C126.263,473.219 126.031,473.186 127.616,479.472C128.402,482.589 127.153,482.723 128.74,487.415C129.701,490.252 128.148,498.124 130.213,502.634C131.595,505.653 129.056,507.942 131.672,515.445C131.728,515.607 135.912,568.998 136.711,571.422C137.588,574.083 136.71,586.663 141.484,601.506C142.073,603.337 141.213,609.678 147.485,624.506C152.798,637.064 154.217,638.043 156.113,643.637C156.406,644.501 160.005,649.772 157.521,649.761C156.626,649.757 143.256,639.713 133.585,634.355C132.169,633.571 132.557,633.154 116.768,623.103C41.83,575.397 23.184,541.056 12.357,516.567C10.686,512.785 11.786,512.474 10.046,508.721C1.852,491.045 2.532,471.654 1.293,467.576C0.763,465.83 1.149,446.771 1.008,446.495C0.794,446.074 0.214,445.921 0,445.5Z" style="fill:rgb(90,45,136);"/>
        <path d="M1009.999,430.5L1009.999,436.5C1009.904,436.959 1009.085,437.021 1008.99,437.48C1008.965,437.603 1008.959,456.474 1008.973,456.528C1009.091,456.984 1009.881,457.044 1009.999,457.5C1009.905,457.685 1008.985,457.907 1008.968,459.518C1008.911,465.147 1009.185,465.12 1008.678,466.578C1007.046,471.272 1008.127,472.793 1007.712,474.549C1005.952,481.999 1005.321,481.805 1005.237,482.464C1005.125,483.339 1004.102,491.343 1003.101,493.286C1002.694,494.076 1000.3,498.719 998.99,503.601C995.724,515.768 978.288,544.154 974.295,548.306C969.046,553.765 970.213,554.785 950.463,574.462C927.344,597.495 901.487,610.541 894.412,616.384C887.572,622.033 886.772,620.747 871.362,632.309C870.086,633.266 855.706,644.055 855.378,644.218C852.645,645.575 852.827,641.532 855.635,636.572C860.07,628.74 860.062,628.702 866.77,607.589C869.084,600.305 868.339,600.148 868.563,599.526C870.596,593.873 868.933,593.593 870.233,589.414C872.198,583.099 871.236,582.998 871.46,582.482C872.881,579.213 871.786,579.033 872.615,575.529C874.602,567.129 873.796,567.067 874.019,566.359C875.702,561.033 874.312,560.819 875.255,557.418C876.917,551.425 875.734,547.731 875.984,543.523C877.105,524.626 878.004,524.755 878.995,502.537C879.031,501.726 879.906,500.651 879.958,498.515C880.141,490.993 880.613,491.076 880.979,483.516C881.045,482.155 882.145,480.161 882.201,479.471C883.705,461.033 884.563,461.241 889.177,443.415C891.802,433.274 892.88,433.689 895.683,423.594C899.938,408.266 897.199,439.231 898.166,442.583C898.754,444.621 901.592,464.33 901.987,465.291C904.698,471.878 901.436,472.607 904.144,478.666C904.279,478.969 916.988,528.201 904.931,563.699C901.671,573.298 901.247,573.04 897.515,582.507C894.716,589.607 885.825,598.557 890.467,598.771C892.075,598.845 910.898,569.213 913.463,565.473C931.992,538.456 942.245,528.067 945.127,525.148C983.102,486.671 988.844,479.206 1002.196,449.377C1008.46,435.384 1004.45,426.552 1009.999,430.5Z" style="fill:rgb(90,45,136);"/>
        <path d="M63.034,445.5C63.089,422.845 66.787,423.316 67.902,411.555C68.204,408.364 79.963,379.184 82.69,374.609C87.14,367.145 87.256,367.226 87.6,366.554C88.37,365.048 94.194,353.66 98.016,348.159C109.375,331.812 112.237,319.212 112.901,317.686C116.626,309.124 114.419,308.472 115.698,306.633C118.235,302.99 118.072,307.88 117.905,325.501C117.873,328.85 117.141,328.639 116.991,330.532C115.753,346.189 115.317,346.117 115.223,347.477C115.01,350.577 115.121,350.486 114.922,353.56C114.815,355.223 114.034,354.958 113.873,356.559C113.119,364.03 112.508,363.855 112.484,364.499C112.161,373.109 109.22,382.443 108.988,384.532C108.192,391.708 107.366,391.479 105.976,398.561C102.958,413.932 92.18,447.692 89.846,457.583C87.262,468.534 83.576,476.161 83.139,487.47C81.708,524.518 84.566,524.526 83.918,527.677C82.74,533.402 76.857,516.481 53.836,489.242C48.242,482.624 48.604,482.454 43.155,475.825C35.395,466.385 35.921,466.101 28.606,456.425C16.641,440.596 8.605,409.651 7.888,405.43C7.737,404.541 6.005,394.346 5.999,394.327C1.665,381.496 0.197,342.42 1.156,338.423C2.974,330.845 1.385,330.247 2.151,327.404C3.549,322.217 2.196,322.051 3.284,318.421C8.22,301.951 9.448,284.865 12.542,284.664C14.623,284.529 13.02,285.97 13.035,302.5C13.049,317.761 13.889,317.633 17.153,332.579C17.592,334.588 16.004,335.197 41.522,393.49C56.312,427.275 54.589,437.932 56.925,443.306C58.05,445.896 57.317,445.992 58.22,448.616C60.33,454.753 59.566,461.522 60.668,463.397C63.362,467.984 62.343,475.419 64.726,478.284C66.789,480.762 66.785,484.284 68.104,481.314C68.855,479.621 66.464,473.661 66.442,473.506C66.28,472.37 65.091,464.016 63.701,459.425C62.718,456.179 63.045,456.211 63.034,445.5Z" style="fill:rgb(90,45,136);"/>
        <path d="M925.884,522.34C925.596,517.698 931.925,480.919 919.638,448.455C919.087,446.998 910.977,422.255 910.308,418.531C908.819,410.227 906.016,406.226 904.367,395.529C903.118,387.421 899.649,380.947 896.254,359.52C892.568,336.259 892.253,336.396 891.829,327.463C891.809,327.025 891.005,324.808 890.993,324.465C890.333,304.556 890.908,303.187 892.349,303.976C893.99,304.876 891.963,306.065 901.451,325.526C919.611,362.773 924.877,360.059 940.387,398.55C943.103,405.29 943.172,405.219 943.996,412.455C944.052,412.95 944.542,412.826 945.271,418.549C945.542,420.685 946.445,420.418 946.465,423.5C946.693,459.211 946.14,459.335 941.323,473.433C940.316,476.379 943.428,476.672 944.742,473.601C946.508,469.471 946.236,469.445 948.567,465.542C951.156,461.206 949.962,450.32 950.216,449.418C951.582,444.585 954.247,426.668 957.099,420.311C957.739,418.885 956.078,418.48 962.686,401.587C963.138,400.431 964.133,395.565 969.326,384.406C973.324,375.814 972.868,375.718 977.009,367.266C977.484,366.295 992.686,328.001 993.84,314.524C994.32,308.927 994.934,309.085 994.965,303.5C995.089,281.536 994.654,280.394 996.503,280.436C998.191,280.474 1004.83,301.115 1005.991,313.473C1006.799,322.062 1007.845,321.882 1007.851,330.5C1007.875,364.378 1007.901,364.441 1006.926,366.696C1006.203,368.367 1007.09,375.331 1005.317,381.438C1004.66,383.704 1005.726,384.803 1004.254,388.378C1003.483,390.251 1001.471,397.623 1001.25,398.433C1000.036,402.88 1000.564,402.937 995.756,418.585C994.347,423.171 993.502,422.778 992.353,427.456C991.991,428.931 984.094,445.131 984.04,445.212C972.226,462.909 960.238,476.041 953.049,487.22C950.022,491.926 949.029,491.154 943.115,500.246C942.401,501.345 941.965,501.018 933.604,513.575C930.242,518.624 930.453,518.751 930.114,519.154C928.258,521.355 928.79,522.489 925.884,522.34Z" style="fill:rgb(90,45,136);"/>
        <path d="M982.966,270.5C981.817,302.493 968.233,326.785 966.373,333.449C962.012,349.075 960.054,348.512 957.582,364.512C956.939,368.68 955.351,368.234 955.086,372.455C955.011,373.663 954.865,373.633 953.153,387.453C952.658,391.448 950.471,387.065 950.051,382.548C949.405,375.594 940.215,352.21 935.632,345.408C934.567,343.827 935.171,343.488 922.967,325.22C904.032,296.874 880.433,272.192 869.421,238.528C868.215,234.842 865.989,231.644 865.009,225.541C864.11,219.947 861.831,220.513 861.016,209.52C860.94,208.504 858.727,204.221 860.556,203.79C863.455,203.106 862.937,209.392 873.758,220.25C899.068,245.651 909.657,252.277 924.303,269.667C939.045,287.171 935.815,289.044 943.042,302.758C945.038,306.547 949.235,343.319 951.216,330.432C951.595,327.965 952.18,327.978 951.329,325.576C950.976,324.581 951.002,324.654 949.108,312.566C948.851,310.928 949.688,307.229 948.251,303.623C947.85,302.617 946.904,250.578 948.675,245.577C949.556,243.086 948.001,236.14 949.707,230.577C951.348,225.226 949.031,224.959 950.692,219.572C952.06,215.136 950.288,214.918 951.634,210.548C952.404,208.051 951.949,185.655 951.905,183.491C951.889,182.691 951.367,182.838 951.016,173.524C950.996,172.981 947.69,158.205 947.379,157.558C946.766,156.283 939.902,142.015 939.949,141.5C940.554,134.868 950.763,154.958 956.167,160.799C956.675,161.348 956.541,161.378 961.303,168.615C961.997,169.671 971.114,188.418 971.683,190.452C973.437,196.717 979.913,212.894 980.991,226.468C981.062,227.37 981.911,228.677 981.955,230.48C981.99,231.922 982.393,231.887 982.977,248.485C983.006,249.306 983.914,251.785 983.933,252.458C984.195,261.554 983.168,261.441 982.966,270.5Z" style="fill:rgb(90,45,136);"/>
        <path d="M59.966,310.5C60.102,323.476 57.418,323.866 57.773,338.432C57.778,338.651 59.031,341.618 60.319,337.427C61.814,332.564 61.917,332.63 61.957,327.501C61.965,326.459 63.838,315.749 64.306,314.421C67.729,304.72 68.561,299.735 72.213,295.252C73.065,294.206 72.183,293.675 80.889,280.79C97.599,256.058 137.721,223.747 138.998,219.627C139.322,218.583 146.833,203.613 146.084,212.474C146.036,213.047 145.226,212.831 144.537,219.504C144.479,220.069 143.769,219.904 143.051,226.439C142.912,227.703 135.162,255.676 125.656,271.598C109.49,298.677 108.583,297.977 91.164,324.268C69.308,357.257 70.96,358.18 61.264,381.382C61.151,381.653 58.104,397.601 56.507,386.499C56.317,385.177 55.339,384.688 55.233,382.51C54.98,377.328 53.857,377.594 53.014,372.537C49.96,354.214 26.828,306.834 25.77,283.484C25.68,281.496 24.471,281.166 24.452,278.501C24.183,240.683 24.495,239.707 25.519,236.507C26.377,233.826 24.766,229.41 26.873,223.668C27.45,222.096 26.814,221.936 32.803,203.59C35.528,195.243 35.956,195.476 39.555,187.522C40.652,185.099 40.142,184.934 43.422,179.45C44.914,176.956 60.509,150.88 62.588,148.593C62.799,148.36 69.594,140.885 66.348,147.452C63.481,153.253 62.03,152.51 58.096,165.381C54.914,175.792 53.775,177.814 53.752,198.5C53.734,214.626 54.421,216.86 54.889,218.383C55.177,219.319 53.785,219.454 56.394,230.526C56.723,231.92 55.978,235.275 57.436,238.531C59.295,242.679 57.563,242.99 58.81,247.414C59.493,249.836 58.036,250.007 59.775,256.417C60.598,259.449 59.131,259.519 60.645,267.48C60.824,268.419 60.753,300.193 60.695,300.518C59.798,305.531 60.035,305.452 59.966,310.5Z" style="fill:rgb(90,45,136);"/>
        <path d="M934.966,203.5C934.721,209.568 935.01,209.564 934.286,211.396C933.755,212.741 933.116,248.637 934.572,252.466C935.292,254.359 935.964,264.101 932.115,258.802C928.093,253.265 928.668,252.944 924.373,247.598C906.388,225.21 904.552,227.08 883.316,207.742C882.466,206.969 881.975,207.669 871.848,199.097C846.465,177.612 838.933,171.126 826.748,148.369C822.16,139.799 812.47,109.319 814.84,107.939C817.829,106.198 817.052,112.516 819.888,116.186C820.303,116.724 823.59,121.749 823.908,122.235C824.542,123.205 840.65,139.318 841.756,140.144C867.967,159.707 889.216,171.739 901.618,189.418C903.776,192.495 907.572,194.847 910.039,199.749C912.199,204.044 919.611,222.607 920.879,217.749C921.794,214.248 914.71,206.873 910.132,187.562C909.46,184.728 906.512,175.653 906.178,174.624C905.615,172.892 906.223,172.824 904.093,166.691C902.403,161.824 903.977,161.527 902.141,156.667C899.916,150.773 896.574,135.411 896.168,133.545C894.363,125.246 890.607,113.832 889.025,107.582C888.974,107.38 881.653,93.44 880.701,92.321C872.335,82.49 872.991,81.909 864.883,75.132C858.121,69.479 878.825,75.355 895.302,89.732C897.271,91.451 911.749,104.084 916.752,114.377C917.658,116.24 931.322,135.985 932.542,153.496C932.691,155.633 933.694,155.329 933.793,157.477C934.118,164.565 934.943,164.421 934.966,171.5L934.966,203.5Z" style="fill:rgb(90,45,136);"/>
        <path d="M73.034,260.5C73.072,222.456 73.371,222.406 72.731,220.417C70.656,213.969 72.584,207.922 71.546,205.48C69.355,200.33 70.857,176.868 70.93,176.698C72.336,173.44 71.719,173.355 71.872,169.518C71.922,168.246 72.967,166.101 73.007,165.466C73.264,161.386 73.567,161.488 74.012,157.469C79.699,106.164 138.487,73.519 136.779,82.585C136.761,82.679 126.712,93.819 125.833,94.793C123.837,97.005 115.489,113.339 115.311,114.469C114.136,121.946 111.448,124.244 109.985,131.56C107.766,142.661 108.28,142.744 107.96,143.673C107.484,145.059 106.215,148.755 103.954,161.547C99.404,187.295 97.363,186.748 95.973,192.577C94.115,200.364 85.935,220.6 87.125,221.847C90.528,225.411 89.238,209.385 113.784,184.77C136.553,161.937 147.027,161.531 168.308,140.306C184.571,124.085 182.809,122.749 187.637,114.598C190.054,110.517 189.26,119.977 189.219,120.461C188.273,131.716 185.812,132.963 183.799,140.587C181.797,148.168 179.066,146.895 173.596,161.551C172.417,164.709 172.057,164.456 162.925,176.798C158.828,182.336 143.793,197.932 143.5,198.5C141.355,202.64 140.088,201.413 138.868,202.858C130.844,212.365 119.29,216.435 111.259,224.251C87.9,246.987 83.814,251.813 74.923,266.941C71.693,272.437 73.022,260.799 73.034,260.5Z" style="fill:rgb(90,45,136);"/>
        <path d="M883.967,146.47C884.635,149.47 891.285,162.16 885.731,157.192C882.976,154.728 849.002,128.907 818.81,91.205C799.787,67.45 797.897,58.45 786.232,46.79C784.546,45.106 765.429,25.996 765.383,25.512C765.136,22.883 767.104,24.815 796.604,36.249C846.775,55.696 861.904,89.092 869.048,101.769C869.591,102.733 869.035,102.968 874.656,114.414C875.062,115.24 880.83,133.388 880.838,133.417C883.712,144.197 883.847,145.403 883.967,146.47Z" style="fill:rgb(90,45,136);"/>
        <path d="M123.057,144.459C125.301,136.137 125.15,136.157 125.449,135.477C130.896,123.118 126.029,119.792 144.045,91.204C162.025,62.674 184.489,53.638 192.829,47.961C194.039,47.138 234.505,28.723 235.944,30.132C237.003,31.168 228.933,38.463 221.66,45.644C220.515,46.775 220.447,48.018 217.242,51.254C209.347,59.224 183.357,97.63 182.774,98.665C169.496,122.272 126.493,154.65 120.453,161.455C111.595,171.435 120.382,157.489 123.057,144.459Z" style="fill:rgb(90,45,136);"/>
        <path d="M523.966,458.5C523.324,468.46 515.246,481.222 511.492,481.272C487.5,481.587 487.112,481.833 485.874,480.198C470.875,460.399 477.358,451.799 478.86,449.806C483.087,444.2 501.859,442.116 508.585,444.255C517.392,447.057 523.342,445.778 523.966,458.5Z" style="fill:rgb(90,45,136);"/>
        <path d="M456.5,434.034C465.241,434.023 467.665,435.712 470.127,427.35C470.688,425.442 473.044,425.549 473.073,429.504C473.101,433.163 472.882,433.178 474.149,436.6C476.302,442.418 469.876,438.811 459.873,448.882C455.659,453.125 455.748,457.764 451.489,453.511C450.558,452.581 443.682,445.715 448.308,437.368C449.946,434.413 455.794,434.075 456.5,434.034Z" style="fill:rgb(90,45,136);"/>
        <path d="M822.856,395.674C820.213,403.179 822.991,403.91 821.087,406.236C817.544,410.564 818.614,379.527 823.094,387.729C824.776,390.808 823.089,395.083 822.856,395.674Z" style="fill:rgb(90,45,136);"/>
        <path d="M533.3,313.385C528.33,319.836 528.453,310.73 529.784,309.926C530.351,309.583 531.832,309.424 532.385,309.741C534.263,310.818 533.816,311.234 533.3,313.385Z" style="fill:rgb(90,45,136);"/>
        <path d="M326.225,272.748C326.006,272.413 324.28,269.776 327.71,267.972C331.192,266.141 331.438,276.742 326.225,272.748Z" style="fill:rgb(90,45,136);"/>
        <path d="M1009.999,436.5L1009.999,457.5C1009.881,457.044 1009.091,456.984 1008.973,456.528C1008.959,456.474 1008.965,437.603 1008.99,437.48C1009.085,437.021 1009.904,436.959 1009.999,436.5Z" style="fill:rgb(90,45,136);fill-opacity:0.53;"/>
        <path d="M624.318,446.325C624.111,446.55 620.441,450.533 620.69,447.501C620.914,444.775 627.717,440.205 624.318,446.325Z" style="fill:rgb(90,45,136);fill-opacity:0.04;"/>
        <path d="M340.717,396.342C342.669,400.394 338.531,398.847 338.207,397.603C337.624,395.37 338.871,394.915 340.717,396.342Z" style="fill:rgb(90,45,136);fill-opacity:0.99;"/>
        <path d="M570.345,439.33C570.542,439.766 569.756,440.176 571.046,440.882C571.395,441.073 571.257,441.152 571.595,441.337C571.361,441.329 568.734,441.239 568.676,441.199C567.201,440.182 568.821,440.279 570.345,439.33Z" style="fill:rgb(90,45,136);fill-opacity:0.54;"/>
    </g>
</svg>
